<svg width="693" height="679" viewBox="0 0 693 679" fill="none" xmlns="http://www.w3.org/2000/svg">
<path d="M511.175 493.516L483.685 471.276C483.499 471.129 483.262 471.061 483.025 471.086L474.935 472.046C474.615 472.08 474.582 472.2 474.835 472.406L504.475 496.696C507.545 498.876 520.125 507.396 511.385 510.936C493.732 518.076 480.472 523.23 471.605 526.396C471.292 526.51 471.135 526.73 471.135 527.056C471.035 543.09 471.075 559.076 471.255 575.016C471.322 581.016 470.888 585.293 469.955 587.846C465.415 600.306 449.545 604.276 439.795 594.916C435.728 591.016 433.648 586.223 433.555 580.536C433.382 570.003 433.372 559.456 433.525 548.896C433.527 548.82 433.512 548.744 433.482 548.674C433.452 548.604 433.407 548.541 433.351 548.489C433.294 548.437 433.227 548.397 433.153 548.373C433.08 548.348 433.002 548.339 432.925 548.346L414.365 550.156C413.998 550.19 413.812 550.393 413.805 550.766C413.675 564.906 400.225 571.306 387.895 573.946C364.795 578.893 341.615 579.263 318.355 575.056C309.895 573.53 302.232 570.203 295.365 565.076C289.885 560.976 288.515 556.066 287.105 549.496C287.032 549.123 286.805 548.936 286.425 548.936L268.905 548.866C268.498 548.866 268.298 549.07 268.305 549.476C268.392 556.943 268.432 564.386 268.425 571.806C268.412 580.113 267.855 585.693 266.755 588.546C264.408 594.613 259.635 598.45 252.435 600.056C243.875 601.956 234.185 595.966 231.025 587.646C230.138 585.306 229.688 581.673 229.675 576.746C229.635 562.046 229.635 547.16 229.675 532.086C229.675 531.526 229.445 531.086 228.985 530.766C212.452 519.26 196.235 507.326 180.335 494.966C180.015 494.72 179.652 494.6 179.245 494.606L158.845 494.966C158.405 494.973 158.068 495.163 157.835 495.536C143.335 519.296 128.418 542.786 113.085 566.006C112.999 566.137 112.957 566.291 112.966 566.447C112.975 566.602 113.034 566.749 113.135 566.866C130.688 588.113 134.072 611.696 123.285 637.616C118.998 647.93 115.595 655.966 113.075 661.726C109.325 670.286 102.575 677.586 92.9049 678.516C81.1949 679.636 72.0049 671.816 71.0849 660.306C70.7549 656.226 71.7449 651.816 72.8249 647.696C72.8597 647.562 72.8444 647.42 72.7818 647.296C72.7192 647.172 72.6137 647.075 72.4849 647.024C72.3561 646.972 72.2129 646.97 72.0822 647.016C71.9515 647.062 71.8422 647.155 71.7749 647.276C68.7282 652.656 65.7515 658.213 62.8449 663.946C55.8149 677.806 39.2749 683.896 26.7849 672.676C21.8316 668.223 19.5116 662.463 19.8249 655.396C20.0649 650.036 22.9649 644.716 25.5849 639.926C27.9049 635.7 30.2449 631.486 32.6049 627.286C32.6705 627.166 32.7006 627.03 32.6917 626.894C32.6829 626.758 32.6354 626.627 32.5549 626.516L28.4549 620.826C28.2549 620.553 27.9849 620.443 27.6449 620.496C17.3316 622.17 9.51822 619.303 4.20488 611.896C-11.6251 589.836 21.0649 561.116 38.9449 553.296C56.2549 545.716 73.7449 546.396 91.7149 552.886C91.8734 552.943 92.0464 552.947 92.2071 552.896C92.3679 552.846 92.5076 552.744 92.6049 552.606L139.355 484.926C139.425 484.824 139.473 484.709 139.497 484.588C139.52 484.467 139.519 484.342 139.493 484.222C139.467 484.102 139.416 483.989 139.344 483.89C139.272 483.791 139.18 483.708 139.075 483.646C133.042 480.153 127.565 475.92 122.645 470.946C120.105 468.376 117.495 466.396 114.755 464.346C101.865 454.736 101.895 444.846 101.905 427.946C101.945 331.393 101.922 234.84 101.835 138.286C101.815 122.266 112.455 108.896 127.865 104.896C130.692 104.163 135.592 103.796 142.565 103.796C207.272 103.803 271.952 103.806 336.605 103.806C336.772 103.807 336.934 103.751 337.066 103.648C337.198 103.544 337.293 103.4 337.335 103.236C344.855 73.6263 366.325 48.0863 393.725 35.0963C397.818 33.1496 403.068 31.0929 409.475 28.9263C409.625 28.8748 409.754 28.7745 409.839 28.6418C409.924 28.5092 409.962 28.352 409.945 28.1963C409.755 26.5163 409.175 24.4463 409.025 23.3163C406.235 3.15627 431.775 -8.32372 444.975 7.22628C453.085 16.7663 450.865 30.5263 440.325 37.4963C433.892 41.7429 426.785 42.0563 419.005 38.4363C418.865 38.3737 418.713 38.3431 418.561 38.3465C418.408 38.35 418.26 38.3875 418.125 38.4563C394.725 50.3429 378.932 68.7529 370.745 93.6863C369.925 96.1863 369.345 99.3763 369.005 103.256C368.978 103.59 369.132 103.756 369.465 103.756C422.205 103.81 474.938 103.82 527.665 103.786C533.025 103.78 538.365 105.086 543.685 107.706C546.552 109.113 550.328 111.81 555.015 115.796C560.282 120.276 567.438 126.246 576.485 133.706C585.025 140.746 589.292 150.023 589.285 161.536C589.252 259.956 589.222 358.373 589.195 456.786C589.185 475.836 578.535 486.936 560.765 491.756C560.432 491.85 560.362 492.04 560.555 492.326L600.865 552.526C600.987 552.714 601.172 552.853 601.388 552.919C601.603 552.985 601.836 552.973 602.045 552.886C635.645 538.856 669.765 553.826 687.865 583.686C695.015 595.466 694.265 609.036 682.305 617.176C676.845 620.896 670.765 621.846 664.495 620.116C664.115 620.01 663.828 620.133 663.635 620.486L660.605 626.006C660.418 626.346 660.428 626.683 660.635 627.016C663.668 631.85 666.725 637.463 669.805 643.856C672.195 648.816 674.185 653.846 673.555 659.306C672.275 670.606 662.055 679.366 650.595 678.276C641.445 677.406 635.435 671.716 631.115 663.796C627.855 657.81 624.572 651.993 621.265 646.346C621.208 646.218 621.102 646.117 620.971 646.066C620.84 646.016 620.694 646.019 620.565 646.076C620.436 646.133 620.336 646.239 620.285 646.37C620.234 646.502 620.238 646.648 620.295 646.776C622.755 654.616 623.515 663.186 618.845 670.226C609.115 684.896 588.815 679.216 581.795 665.136C576.215 653.956 571.442 643.086 567.475 632.526C559.035 610.076 562.615 584.816 579.355 566.986C579.627 566.696 579.796 566.324 579.836 565.929C579.876 565.533 579.784 565.135 579.575 564.796L536.405 495.106C536.317 494.964 536.192 494.849 536.043 494.771C535.893 494.694 535.725 494.658 535.555 494.666C526.655 495.153 518.528 494.77 511.175 493.516Z" fill="#1B0C3B"/>
<path d="M438.505 14.2962C438.518 14.7896 438.448 15.1829 438.295 15.4762C438.142 15.7829 437.942 15.8129 437.695 15.5662C436.288 14.1662 434.625 13.1762 432.705 12.5962C432.638 12.5768 432.568 12.5743 432.5 12.5889C432.432 12.6035 432.369 12.6348 432.317 12.6799C432.264 12.7249 432.225 12.7822 432.202 12.8463C432.179 12.9104 432.173 12.9792 432.185 13.0462C433.118 18.7062 431.182 21.9662 426.375 22.8262C421.995 23.6062 418.285 21.6762 418.545 16.7662C421.235 7.38622 433.395 5.82622 438.505 14.2962Z" fill="#F1EBFE"/>
<path d="M438.505 14.2963C440.525 21.1096 439.135 26.033 434.335 29.0663C428.895 32.5063 421.955 30.4463 419.205 24.7463C418.259 22.793 418.039 20.133 418.545 16.7663C418.285 21.6763 421.995 23.6063 426.375 22.8263C431.182 21.9663 433.119 18.7063 432.185 13.0463C432.173 12.9793 432.179 12.9105 432.202 12.8464C432.225 12.7823 432.265 12.725 432.317 12.68C432.369 12.6349 432.432 12.6036 432.5 12.589C432.568 12.5743 432.638 12.5769 432.705 12.5963C434.625 13.1763 436.289 14.1663 437.695 15.5663C437.942 15.813 438.142 15.783 438.295 15.4763C438.449 15.183 438.519 14.7896 438.505 14.2963Z" fill="#AF8BF8"/>
<path d="M543.365 134.516C541.185 134.703 539.149 133.336 537.255 130.416C535.149 126.723 531.439 124.356 526.125 123.316C522.545 122.61 520.059 122.26 518.665 122.266C467.405 122.426 416.142 122.466 364.875 122.386C291.709 122.373 218.542 122.43 145.375 122.556C131.025 122.576 119.755 122.396 119.645 139.516C119.299 197.683 119.249 255.846 119.495 314.006C119.429 352.76 119.359 391.52 119.285 430.286C119.272 434.333 119.779 437.873 120.805 440.906C124.665 452.386 137.005 451.126 146.565 451.136C271.099 451.283 395.632 451.236 520.165 450.996C522.639 450.99 525.182 450.953 527.795 450.886C531.455 450.396 530.385 454.816 529.435 456.736C526.589 457.623 524.665 458.066 523.665 458.066C396.745 458.053 269.829 458.046 142.915 458.046C135.215 458.046 128.245 458.186 122.045 453.866C116.025 449.68 113.012 443.653 113.005 435.786C112.965 338.113 112.989 240.44 113.075 142.766C113.082 136.993 113.559 132.733 114.505 129.986C116.639 123.8 120.702 119.713 126.695 117.726C129.449 116.813 134.809 116.356 142.775 116.356C267.202 116.423 391.629 116.44 516.055 116.406C524.229 116.406 529.732 116.946 532.565 118.026C539.305 120.6 542.905 126.096 543.365 134.516Z" fill="#F1EBFE"/>
<path d="M364.875 122.386C364.515 122.593 364.111 122.656 363.665 122.576C363.585 122.563 363.538 122.57 363.525 122.596C363.525 122.603 363.571 122.613 363.665 122.626L367.185 123.086C367.678 123.153 367.755 123.363 367.415 123.716C365.915 125.266 364.515 124.866 364.375 127.766C364.335 128.68 363.845 129.393 362.905 129.906C362.651 130.046 362.481 130.256 362.395 130.536C362.181 131.21 361.721 131.596 361.015 131.696C360.661 131.743 360.395 131.92 360.215 132.226L359.375 133.636C359.278 133.802 359.146 133.944 358.987 134.053C358.828 134.162 358.646 134.235 358.455 134.266C356.041 134.633 354.155 135.79 352.795 137.736C352.627 137.974 352.382 138.142 352.105 138.206C350.911 138.48 350.058 139.19 349.545 140.336C349.398 140.67 349.141 140.863 348.775 140.916C346.885 141.186 346.785 142.456 345.445 142.926C344.798 143.153 344.291 143.036 343.925 142.576C343.825 142.443 343.695 142.393 343.535 142.426C343.088 142.526 342.925 142.806 343.045 143.266C343.105 143.493 343.073 143.734 342.955 143.938C342.837 144.142 342.643 144.293 342.415 144.356C341.095 144.736 340.065 145.51 339.325 146.676C339.23 146.826 339.099 146.948 338.942 147.03C338.786 147.113 338.611 147.153 338.435 147.146C337.348 147.106 336.315 147.323 335.335 147.796C335.268 147.83 335.208 147.82 335.155 147.766L334.925 147.546C334.878 147.493 334.821 147.486 334.755 147.526C333.795 148.126 332.841 148.12 331.895 147.506C331.828 147.466 331.785 147.48 331.765 147.546C331.731 147.646 331.688 147.743 331.635 147.836C331.555 147.99 331.598 148.066 331.765 148.066L343.875 148.206L154.765 148.496C154.593 148.496 154.423 148.531 154.266 148.598C154.108 148.666 153.966 148.765 153.848 148.89C153.73 149.014 153.639 149.162 153.58 149.323C153.521 149.484 153.495 149.655 153.505 149.826C153.805 155.886 153.975 162.04 154.015 168.286C154.268 211.133 154.318 253.98 154.165 296.826L153.675 301.566C153.641 301.92 153.481 302.2 153.195 302.406L152.515 302.906C152.459 302.947 152.392 302.968 152.323 302.969C152.254 302.969 152.187 302.948 152.131 302.908C152.075 302.869 152.033 302.813 152.01 302.748C151.987 302.683 151.985 302.612 152.005 302.546C152.265 301.733 152.071 301.163 151.425 300.836C151.143 300.695 150.819 300.67 150.525 300.766C148.745 301.306 146.945 301.673 145.125 301.866C143.271 302.06 141.508 302.413 139.835 302.926C137.108 303.766 134.305 304.233 131.425 304.326C128.858 304.406 126.328 304.766 123.835 305.406C122.895 305.646 122.065 305.386 121.265 304.936C120.905 304.723 120.695 304.826 120.635 305.246L119.495 314.006C119.248 255.846 119.298 197.683 119.645 139.516C119.755 122.396 131.025 122.576 145.375 122.556C218.541 122.43 291.708 122.373 364.875 122.386Z" fill="#E4D8FD"/>
<path d="M537.255 130.416C536.522 135.003 536.269 139.51 536.495 143.936C536.855 151.023 537.035 154.6 537.035 154.666C537.562 244.793 537.539 334.916 536.965 425.036C536.919 431.616 536.602 436.66 536.015 440.166C535.802 441.426 535.829 442.466 536.095 443.286C536.121 443.368 536.164 443.443 536.222 443.507C536.279 443.57 536.35 443.621 536.429 443.654C536.508 443.687 536.594 443.703 536.679 443.7C536.765 443.697 536.849 443.675 536.925 443.636L538.225 442.976C535.285 446.596 531.809 449.233 527.795 450.886C525.182 450.953 522.639 450.99 520.165 450.996C395.632 451.236 271.099 451.283 146.565 451.136C137.005 451.126 124.665 452.386 120.805 440.906C119.779 437.873 119.272 434.333 119.285 430.286C119.359 391.52 119.429 352.76 119.495 314.006L120.635 305.246C120.695 304.826 120.905 304.723 121.265 304.936C122.065 305.386 122.895 305.646 123.835 305.406C126.329 304.766 128.859 304.406 131.425 304.326C134.305 304.233 137.109 303.766 139.835 302.926C141.509 302.413 143.272 302.06 145.125 301.866C146.945 301.673 148.745 301.306 150.525 300.766C150.82 300.67 151.143 300.695 151.425 300.836C152.072 301.163 152.265 301.733 152.005 302.546C151.986 302.612 151.988 302.683 152.011 302.748C152.033 302.813 152.076 302.869 152.132 302.908C152.188 302.948 152.255 302.969 152.324 302.969C152.393 302.968 152.46 302.947 152.515 302.906L153.195 302.406C153.482 302.2 153.642 301.92 153.675 301.566L154.165 296.826L154.225 400.456C154.225 400.756 154.375 400.906 154.675 400.906L498.965 400.966C499.292 400.966 499.455 400.806 499.455 400.486L499.485 150.296C499.485 149.056 498.865 148.436 497.625 148.436L343.875 148.206L331.765 148.066C331.599 148.066 331.555 147.99 331.635 147.836C331.689 147.743 331.732 147.646 331.765 147.546C331.785 147.48 331.829 147.466 331.895 147.506C332.842 148.12 333.795 148.126 334.755 147.526C334.822 147.486 334.879 147.493 334.925 147.546L335.155 147.766C335.209 147.82 335.269 147.83 335.335 147.796C336.315 147.323 337.349 147.106 338.435 147.146C338.612 147.153 338.787 147.113 338.943 147.03C339.099 146.948 339.231 146.826 339.325 146.676C340.065 145.51 341.095 144.736 342.415 144.356C342.644 144.293 342.838 144.142 342.956 143.938C343.074 143.734 343.106 143.493 343.045 143.266C342.925 142.806 343.089 142.526 343.535 142.426C343.695 142.393 343.825 142.443 343.925 142.576C344.292 143.036 344.799 143.153 345.445 142.926C346.785 142.456 346.885 141.186 348.775 140.916C349.142 140.863 349.399 140.67 349.545 140.336C350.059 139.19 350.912 138.48 352.105 138.206C352.382 138.142 352.628 137.974 352.795 137.736C354.155 135.79 356.042 134.633 358.455 134.266C358.647 134.235 358.828 134.162 358.987 134.053C359.146 133.944 359.279 133.802 359.375 133.636L360.215 132.226C360.395 131.92 360.662 131.743 361.015 131.696C361.722 131.596 362.182 131.21 362.395 130.536C362.482 130.256 362.652 130.046 362.905 129.906C363.845 129.393 364.335 128.68 364.375 127.766C364.515 124.866 365.915 125.266 367.415 123.716C367.755 123.363 367.679 123.153 367.185 123.086L363.665 122.626C363.572 122.613 363.525 122.603 363.525 122.596C363.539 122.57 363.585 122.563 363.665 122.576C364.112 122.656 364.515 122.593 364.875 122.386C416.142 122.466 467.405 122.426 518.665 122.266C520.059 122.26 522.545 122.61 526.125 123.316C531.439 124.356 535.149 126.723 537.255 130.416Z" fill="#CAB2FB"/>
<path d="M506.146 145.916C508.979 146.123 510.272 144.45 510.026 140.896C509.776 137.196 511.616 134.626 515.146 133.806C515.385 133.75 515.603 133.625 515.771 133.446C515.94 133.267 516.052 133.043 516.093 132.801C516.135 132.558 516.104 132.309 516.005 132.084C515.906 131.859 515.743 131.669 515.536 131.536C513.396 130.15 510.812 129.466 507.786 129.486C518.376 123.456 529.846 131.606 529.266 142.766C528.526 157.046 512.126 154.326 506.146 145.916Z" fill="#1B0C3B"/>
<path d="M127.225 136.286C128.395 131.336 132.855 128.036 137.915 127.856C147.535 127.496 153.575 137.726 150.855 146.266C146.575 159.706 123.845 150.606 127.225 136.286Z" fill="#1B0C3B"/>
<path d="M507.785 129.486C510.812 129.466 513.395 130.149 515.535 131.536C515.742 131.669 515.906 131.859 516.005 132.084C516.104 132.309 516.135 132.558 516.093 132.801C516.052 133.043 515.94 133.267 515.771 133.446C515.602 133.625 515.385 133.75 515.145 133.806C511.615 134.626 509.775 137.196 510.025 140.896C510.272 144.449 508.979 146.123 506.145 145.916C502.639 139.956 503.185 134.479 507.785 129.486Z" fill="#9565F6"/>
<path d="M537.255 130.416C539.149 133.336 541.185 134.703 543.365 134.516C543.219 235.636 543.165 336.726 543.205 437.786C543.205 440.686 542.639 443.423 541.505 445.996L541.735 442.646C541.743 442.49 541.698 442.336 541.607 442.21C541.516 442.085 541.384 441.995 541.235 441.956C540.222 441.696 539.219 442.036 538.225 442.976L536.925 443.636C536.849 443.675 536.765 443.697 536.679 443.7C536.593 443.703 536.508 443.687 536.429 443.654C536.35 443.62 536.279 443.57 536.222 443.507C536.164 443.443 536.121 443.368 536.095 443.286C535.829 442.466 535.802 441.426 536.015 440.166C536.602 436.659 536.919 431.616 536.965 425.036C537.539 334.916 537.562 244.793 537.035 154.666C537.035 154.599 536.855 151.023 536.495 143.936C536.269 139.509 536.522 135.003 537.255 130.416Z" fill="#664C7A"/>
<path d="M577.365 226.946C570.431 224.646 563.528 222.64 556.655 220.926C556.355 220.853 555.765 220.986 554.885 221.326L554.845 132.836C554.845 132.51 554.978 132.443 555.245 132.636C562.015 137.586 572.725 146.006 575.935 154.946C576.775 157.28 577.208 161.043 577.235 166.236C577.328 186.35 577.371 206.586 577.365 226.946Z" fill="#AF8BF8"/>
<path d="M343.875 148.206L497.625 148.436C498.865 148.436 499.485 149.056 499.485 150.296L499.455 400.486C499.455 400.806 499.292 400.966 498.965 400.966L154.675 400.906C154.375 400.906 154.225 400.756 154.225 400.456L154.165 296.826C154.318 253.98 154.268 211.133 154.015 168.286C153.975 162.04 153.805 155.886 153.505 149.826C153.495 149.655 153.521 149.484 153.58 149.322C153.639 149.161 153.73 149.014 153.848 148.89C153.966 148.765 154.108 148.666 154.266 148.598C154.424 148.531 154.593 148.496 154.765 148.496L343.875 148.206Z" fill="#F1EBFE"/>
<path d="M416.225 185.706C421.585 187.356 424.575 191.976 421.195 196.996C415.115 206.026 377.235 185.836 386.995 173.936C392.675 167.006 400.465 176.826 404.965 179.916C409.031 182.723 412.785 184.653 416.225 185.706Z" fill="#1B0C3B"/>
<path d="M258.155 181.276C256.435 190.206 231.085 204.366 223.535 198.656C219.655 195.726 219.835 188.796 225.075 187.016C231.928 184.69 238.178 181.293 243.825 176.826C246.565 174.66 248.375 173.433 249.255 173.146C253.855 171.616 259.085 176.436 258.155 181.276Z" fill="#1B0C3B"/>
<path d="M561.547 180.969C562.471 183.441 565.02 184.773 567.239 183.943C569.458 183.114 570.508 180.436 569.583 177.964C568.659 175.491 566.11 174.159 563.891 174.989C561.672 175.819 560.622 178.496 561.547 180.969Z" fill="#1B0C3B"/>
<path d="M139.195 188.226C141.581 188.226 143.515 186.292 143.515 183.906C143.515 181.52 141.581 179.586 139.195 179.586C136.809 179.586 134.875 181.52 134.875 183.906C134.875 186.292 136.809 188.226 139.195 188.226Z" fill="#F1EBFE"/>
<path d="M197.813 182.028L190.235 181.829C187.105 181.747 184.501 184.218 184.419 187.349L184.399 188.129C184.317 191.259 186.788 193.863 189.918 193.945L197.496 194.143C200.626 194.225 203.23 191.754 203.312 188.624L203.332 187.844C203.414 184.714 200.943 182.11 197.813 182.028Z" fill="#E4D8FD"/>
<path d="M561.451 206.639C561.913 209.429 564.133 211.385 566.411 211.007C568.688 210.63 570.16 208.063 569.699 205.274C569.237 202.484 567.016 200.528 564.738 200.905C562.461 201.282 560.989 203.849 561.451 206.639Z" fill="#1B0C3B"/>
<path d="M451.115 232.196C471.785 255.276 470.585 289.776 446.325 309.816C432.418 321.31 415.722 324.816 396.235 320.336C381.235 315.343 370.095 306.28 362.815 293.146C349.775 269.636 357.095 241.266 378.195 225.496C397.595 210.986 426.125 210.356 445.145 226.916C447.198 228.696 449.188 230.456 451.115 232.196Z" fill="#1B0C3B"/>
<path d="M175.085 290.596C162.485 264.196 174.815 232.486 200.815 220.146C237.765 202.616 279.385 231.666 277.525 272.016C276.878 286.03 271.452 297.9 261.245 307.626C234.425 333.176 190.815 323.526 175.085 290.596Z" fill="#1B0C3B"/>
<path d="M577.365 226.946L577.305 315.376L571.905 315.066C571.425 315.04 571.185 315.266 571.185 315.746L571.195 341.336C571.195 341.507 571.16 341.677 571.092 341.834C571.024 341.991 570.924 342.133 570.798 342.25C570.673 342.367 570.524 342.457 570.362 342.515C570.199 342.573 570.027 342.597 569.855 342.586C567.345 342.406 562.245 339.586 562.845 336.296C563.331 333.603 563.495 330.99 563.335 328.456C563.314 328.102 563.191 327.762 562.98 327.476C562.768 327.19 562.478 326.972 562.145 326.846C560.565 326.253 559.355 326.433 558.515 327.386C557.255 328.826 557.935 332.076 557.455 334.186C557.321 334.76 557.095 335.083 556.775 335.156C556.415 335.236 555.948 335.113 555.375 334.786L554.885 221.326C555.765 220.986 556.355 220.853 556.655 220.926C563.528 222.64 570.431 224.646 577.365 226.946Z" fill="#664C7A"/>
<path d="M396.095 239.846C392.635 236.433 388.395 234.76 383.375 234.826C395.962 225.88 410.062 223.806 425.675 228.606C425.768 228.636 425.847 228.699 425.898 228.783C425.95 228.866 425.969 228.965 425.953 229.062C425.938 229.159 425.888 229.247 425.813 229.31C425.738 229.373 425.643 229.407 425.545 229.406C414.392 228.986 404.575 232.466 396.095 239.846Z" fill="#664C7A"/>
<path d="M210.475 239.506C207.088 236.38 202.748 234.76 197.455 234.646C209.442 225.726 222.675 223.946 237.155 229.306C237.201 229.327 237.238 229.363 237.26 229.408C237.283 229.452 237.289 229.503 237.279 229.552C237.268 229.601 237.241 229.645 237.202 229.677C237.164 229.708 237.115 229.726 237.065 229.726C226.632 228.953 217.768 232.213 210.475 239.506Z" fill="#664C7A"/>
<path d="M396.235 320.336C415.722 324.816 432.419 321.309 446.325 309.816C470.585 289.776 471.785 255.276 451.115 232.196C456.042 232.363 459.969 233.153 462.895 234.566C483.365 244.436 492.975 264.286 487.975 286.166C484.145 302.896 473.555 316.236 458.565 324.466C443.245 332.879 426.739 334.113 409.045 328.166C404.425 326.62 400.155 324.009 396.235 320.336Z" fill="#CAB2FB"/>
<path d="M197.455 234.646C202.748 234.759 207.088 236.379 210.475 239.506C214.955 244.936 214.715 250.046 214.175 256.806C214.141 257.173 214.308 257.359 214.675 257.366C221.565 257.516 219.115 266.946 213.265 265.846C213.018 265.799 212.788 265.699 212.575 265.546L210.525 264.046C210.401 263.958 210.254 263.907 210.103 263.902C209.951 263.897 209.802 263.936 209.675 264.016C207.245 265.556 204.755 267.476 202.025 267.986C197.971 268.739 194.138 267.919 190.525 265.526C186.511 261.659 184.258 257.476 183.765 252.976C184.805 244.463 189.368 238.353 197.455 234.646Z" fill="#F1EBFE"/>
<path d="M383.375 234.826C388.395 234.76 392.635 236.433 396.095 239.846C399.728 245.046 400.658 250.853 398.885 257.266C398.778 257.64 398.908 257.756 399.275 257.616C400.848 257.01 402.388 257.09 403.895 257.856C404.195 258.003 404.415 258.23 404.555 258.536C405.908 261.403 405.292 263.663 402.705 265.316C399.515 267.346 398.425 263.976 395.725 263.786C395.557 263.774 395.388 263.795 395.229 263.848C395.069 263.901 394.922 263.986 394.795 264.096C389.635 268.57 383.788 269.426 377.255 266.666C375.248 265.04 373.405 262.986 371.725 260.506C369.905 257.813 369.368 254.98 370.115 252.006C370.382 244.16 374.802 238.433 383.375 234.826Z" fill="#F1EBFE"/>
<path d="M370.115 252.006C369.368 254.98 369.905 257.813 371.725 260.506C373.405 262.986 375.248 265.04 377.255 266.666C375.342 271.206 373.868 275.956 372.835 280.916C372.435 282.856 372.408 284.763 372.755 286.636C372.768 286.696 372.758 286.759 372.728 286.812C372.698 286.865 372.649 286.905 372.591 286.925C372.533 286.945 372.47 286.943 372.414 286.919C372.357 286.895 372.311 286.852 372.285 286.796C366.638 275.93 365.915 264.333 370.115 252.006Z" fill="#664C7A"/>
<path d="M183.765 252.976C184.259 257.476 186.512 261.659 190.525 265.526C188.739 272.006 187.669 278.443 187.315 284.836C187.195 286.956 187.985 288.466 188.935 290.256C188.95 290.284 188.958 290.316 188.958 290.348C188.958 290.38 188.95 290.411 188.935 290.44C188.921 290.468 188.899 290.493 188.873 290.511C188.847 290.53 188.817 290.542 188.785 290.546C188.659 290.566 188.569 290.533 188.515 290.446C180.909 278.793 179.325 266.303 183.765 252.976Z" fill="#664C7A"/>
<path d="M382.505 289.011C384.373 290.789 387.181 290.873 388.777 289.197C390.372 287.521 390.152 284.721 388.284 282.942C386.416 281.164 383.609 281.08 382.013 282.756C380.417 284.432 380.637 287.232 382.505 289.011Z" fill="#F1EBFE"/>
<path d="M195.421 288.619C196.832 290.664 199.509 291.265 201.4 289.96C203.291 288.656 203.68 285.94 202.269 283.894C200.858 281.848 198.181 281.248 196.29 282.552C194.398 283.857 194.009 286.573 195.421 288.619Z" fill="#F1EBFE"/>
<path d="M422.285 307.656C420.505 308.896 418.785 309.216 417.125 308.616C416.845 308.513 416.595 308.343 416.397 308.121C416.198 307.899 416.057 307.632 415.986 307.343C415.915 307.053 415.916 306.751 415.989 306.462C416.062 306.173 416.205 305.907 416.405 305.686C419.072 302.76 422.425 301.163 426.465 300.896C426.583 300.887 426.702 300.916 426.803 300.979C426.904 301.041 426.983 301.134 427.027 301.245C427.072 301.355 427.08 301.477 427.051 301.592C427.022 301.707 426.957 301.81 426.865 301.886C424.885 303.576 424.415 306.186 422.285 307.656Z" fill="#CAB2FB"/>
<path d="M336.295 336.076C323.368 331.496 310.321 331.219 297.155 335.246C292.828 336.566 288.638 338.283 284.585 340.396C280.125 342.726 275.295 339.736 275.615 334.766C276.195 325.726 294.275 316.716 301.385 314.556C323.245 307.926 345.605 315.046 360.175 332.796C363.665 337.046 367.185 345.346 360.475 348.546C358.255 349.606 356.025 348.806 354.065 347.226C348.235 342.566 344.285 338.906 336.295 336.076Z" fill="#1B0C3B"/>
<path d="M577.305 315.376C577.405 362.303 577.332 409.273 577.085 456.286C577.065 459.076 576.925 462.826 575.785 465.526C574.565 468.399 572.762 470.686 570.375 472.386C566.742 469.133 562.682 467.433 558.195 467.286C558.048 467.279 557.906 467.224 557.791 467.131C557.675 467.037 557.593 466.91 557.556 466.767C557.519 466.624 557.529 466.474 557.585 466.339C557.641 466.204 557.739 466.091 557.865 466.016C559.512 465.043 560.479 463.629 560.765 461.776C560.808 461.513 560.794 461.245 560.724 460.988C560.654 460.731 560.53 460.491 560.359 460.286C560.189 460.081 559.976 459.914 559.736 459.796C559.496 459.679 559.233 459.614 558.965 459.606C558.232 459.579 557.655 459.929 557.235 460.656C556.105 462.616 554.755 464.536 553.955 466.656C553.835 466.983 553.609 467.199 553.275 467.306C549.655 468.439 545.955 468.989 542.175 468.956C542.008 468.955 541.844 469.004 541.705 469.098C541.566 469.191 541.458 469.325 541.397 469.481C541.335 469.636 541.322 469.807 541.359 469.971C541.396 470.134 541.482 470.282 541.605 470.396L549.505 477.496L544.885 477.396C544.522 477.389 544.171 477.263 543.885 477.036L535.335 470.186C535.197 470.074 535.096 469.923 535.047 469.751C534.999 469.58 535.004 469.398 535.064 469.23C535.123 469.062 535.233 468.917 535.378 468.814C535.524 468.711 535.697 468.656 535.875 468.656H537.395C537.709 468.656 537.982 468.549 538.215 468.336C544.269 462.809 548.069 458.946 549.615 456.746C553.349 451.419 555.215 445.266 555.215 438.286C555.202 405.619 555.169 372.953 555.115 340.286C555.115 338.479 555.202 336.646 555.375 334.786C555.949 335.113 556.415 335.236 556.775 335.156C557.095 335.083 557.322 334.759 557.455 334.186C557.935 332.076 557.255 328.826 558.515 327.386C559.355 326.433 560.565 326.253 562.145 326.846C562.479 326.971 562.769 327.19 562.98 327.476C563.192 327.762 563.315 328.102 563.335 328.456C563.495 330.989 563.332 333.603 562.845 336.296C562.245 339.586 567.345 342.406 569.855 342.586C570.028 342.597 570.2 342.573 570.362 342.515C570.525 342.457 570.673 342.367 570.799 342.25C570.924 342.132 571.024 341.991 571.093 341.834C571.161 341.677 571.196 341.507 571.195 341.336L571.185 315.746C571.185 315.266 571.425 315.039 571.905 315.066L577.305 315.376Z" fill="#9565F6"/>
<path d="M236.148 366.175C239.278 365.212 241.067 361.996 240.143 358.993C239.219 355.989 235.932 354.335 232.802 355.298C229.671 356.261 227.883 359.476 228.807 362.48C229.731 365.484 233.018 367.138 236.148 366.175Z" fill="white"/>
<path d="M184.07 366.402C181.773 370.078 182.823 374.879 186.415 377.123C190.007 379.368 194.782 378.207 197.079 374.531C199.377 370.854 198.327 366.054 194.735 363.809C191.142 361.564 186.368 362.725 184.07 366.402Z" fill="#664C7A"/>
<path d="M182.475 429.466C188.025 429.466 192.525 424.967 192.525 419.416C192.525 413.866 188.025 409.366 182.475 409.366C176.924 409.366 172.425 413.866 172.425 419.416C172.425 424.967 176.924 429.466 182.475 429.466Z" fill="#F1EBFE"/>
<path d="M134.755 444.386C129.235 441.566 124.825 434.576 128.175 428.346C130.968 423.146 135.218 421.13 140.925 422.296C156.645 425.506 153.655 454.046 134.755 444.386Z" fill="#1B0C3B"/>
<path d="M518.445 445.766C511.285 444.626 505.565 439.026 506.135 431.596C506.625 425.236 513.375 420.906 519.425 422.146C529.475 424.216 535.555 439.286 525.825 445.696C523.195 447.426 521.145 446.196 518.445 445.766Z" fill="#1B0C3B"/>
<path d="M510.305 438.936C507.645 434.766 508.075 428.006 511.485 424.846C512.832 423.599 514.549 423.439 516.635 424.366C516.935 424.499 516.999 424.706 516.825 424.986C514.152 429.253 512.272 433.849 511.185 438.776C511.163 438.87 511.114 438.955 511.044 439.022C510.974 439.088 510.886 439.133 510.792 439.15C510.698 439.167 510.602 439.156 510.515 439.118C510.429 439.08 510.356 439.017 510.305 438.936Z" fill="#9565F6"/>
<path d="M227.285 438.896C229.323 438.896 230.975 437.244 230.975 435.206C230.975 433.168 229.323 431.516 227.285 431.516C225.247 431.516 223.595 433.168 223.595 435.206C223.595 437.244 225.247 438.896 227.285 438.896Z" fill="#E4D8FD"/>
<path d="M541.505 445.996C538.952 451.323 534.928 454.903 529.435 456.736C530.385 454.816 531.455 450.396 527.795 450.886C531.808 449.233 535.285 446.596 538.225 442.976C539.218 442.036 540.222 441.696 541.235 441.956C541.384 441.995 541.515 442.085 541.606 442.21C541.697 442.336 541.743 442.49 541.735 442.646L541.505 445.996Z" fill="#E4D8FD"/>
<path d="M570.375 472.386C563.122 479.133 556.165 480.836 549.505 477.496L541.605 470.396C541.482 470.283 541.396 470.134 541.359 469.971C541.321 469.808 541.334 469.637 541.396 469.481C541.458 469.325 541.565 469.192 541.704 469.098C541.843 469.004 542.007 468.955 542.175 468.956C545.955 468.99 549.655 468.44 553.275 467.306C553.608 467.2 553.835 466.983 553.955 466.656C554.755 464.536 556.105 462.616 557.235 460.656C557.655 459.93 558.232 459.58 558.965 459.606C559.233 459.615 559.495 459.679 559.736 459.797C559.976 459.914 560.188 460.081 560.359 460.286C560.529 460.492 560.654 460.731 560.724 460.988C560.794 461.245 560.808 461.514 560.765 461.776C560.478 463.63 559.512 465.043 557.865 466.016C557.739 466.091 557.64 466.204 557.585 466.339C557.529 466.475 557.519 466.625 557.556 466.767C557.593 466.91 557.675 467.037 557.79 467.131C557.905 467.224 558.047 467.279 558.195 467.286C562.682 467.433 566.742 469.133 570.375 472.386Z" fill="#CAB2FB"/>
<path d="M154.285 480.656L143.255 471.416C143.196 471.369 143.154 471.303 143.136 471.23C143.117 471.156 143.123 471.079 143.152 471.009C143.182 470.939 143.233 470.88 143.298 470.842C143.364 470.804 143.44 470.788 143.515 470.796L150.155 471.616C150.222 471.625 150.284 471.653 150.335 471.696L161.275 480.846C161.33 480.895 161.368 480.96 161.384 481.031C161.399 481.103 161.393 481.177 161.364 481.244C161.335 481.312 161.286 481.369 161.224 481.406C161.161 481.444 161.088 481.462 161.015 481.456L154.475 480.736C154.405 480.729 154.339 480.701 154.285 480.656Z" fill="#9565F6"/>
<path d="M502.985 472.186C506.975 472.116 512.085 469.666 515.895 472.476C519.248 474.949 522.405 477.589 525.365 480.396C525.441 480.465 525.494 480.556 525.517 480.657C525.54 480.757 525.531 480.863 525.491 480.958C525.452 481.053 525.384 481.134 525.297 481.189C525.21 481.244 525.108 481.271 525.005 481.266C519.995 481.146 514.475 482.256 510.185 478.766C507.718 476.759 505.258 474.739 502.805 472.706C502.405 472.373 502.465 472.199 502.985 472.186Z" fill="#9565F6"/>
<path d="M511.175 493.516C507.862 493.396 505.628 494.456 504.475 496.696L474.835 472.406C474.582 472.2 474.615 472.08 474.935 472.046L483.025 471.086C483.262 471.061 483.499 471.129 483.685 471.276L511.175 493.516Z" fill="#CAB2FB"/>
<path d="M457.845 516.986C444.771 519.493 433.878 521.439 425.165 522.826C422.805 523.206 419.661 523.519 415.735 523.766C414.905 516.196 409.385 511.046 403.045 507.446L409.985 501.156C410.316 500.856 410.566 500.477 410.711 500.056C410.856 499.634 410.892 499.184 410.815 498.746C410.248 495.513 410.481 492.346 411.515 489.246C411.542 489.164 411.549 489.076 411.535 488.991C411.522 488.905 411.488 488.824 411.438 488.754C411.387 488.684 411.32 488.627 411.243 488.587C411.167 488.547 411.081 488.527 410.995 488.526L284.705 488.286C284.325 488.286 284.251 488.436 284.485 488.736C289.578 495.296 295.281 501.313 301.595 506.786C289.335 511.706 283.808 520.679 285.015 533.706C285.026 533.831 285.011 533.956 284.972 534.074C284.933 534.193 284.871 534.302 284.788 534.395C284.706 534.488 284.605 534.563 284.493 534.614C284.38 534.666 284.258 534.694 284.135 534.696C275.415 534.849 266.841 534.866 258.415 534.746C254.695 534.696 252.425 532.776 248.795 530.086C224.708 512.179 200.801 494.033 177.075 475.646C176.441 475.153 175.095 473.979 173.035 472.126C172.721 471.846 172.775 471.709 173.195 471.716C183.645 471.786 194.815 472.196 204.485 472.196C287.631 472.163 370.775 472.149 453.915 472.156C455.068 472.156 456.231 472.699 457.405 473.786C468.365 483.926 479.558 493.889 490.985 503.676C492.045 504.583 491.911 505.266 490.585 505.726L457.845 516.986Z" fill="#664C7A"/>
<path d="M245.158 492.739C248.489 493.644 251.784 492.192 252.516 489.495C253.249 486.798 251.143 483.878 247.812 482.973C244.481 482.068 241.186 483.521 240.454 486.217C239.721 488.914 241.827 491.834 245.158 492.739Z" fill="#1B0C3B"/>
<path d="M427.105 491.666C422.405 493.826 413.065 495.506 415.945 486.256C420.318 481.649 424.045 482.239 427.125 488.026C427.592 488.893 427.585 490.106 427.105 491.666Z" fill="#1B0C3B"/>
<path d="M415.945 486.256C413.065 495.506 422.405 493.826 427.105 491.666C426.585 495.46 424.442 497.86 420.675 498.866C419.025 499.306 417.845 498.756 416.955 497.266C415.155 494.22 414.255 491.9 414.255 490.306C414.262 487.813 414.825 486.463 415.945 486.256Z" fill="#AF8BF8"/>
<path d="M403.045 507.446C378.125 496.916 345.435 496.626 319.405 501.236C313.491 502.289 307.555 504.139 301.595 506.786C295.281 501.313 289.578 495.296 284.485 488.736C284.251 488.436 284.325 488.286 284.705 488.286L410.995 488.526C411.081 488.527 411.166 488.547 411.243 488.587C411.32 488.627 411.387 488.684 411.438 488.754C411.488 488.824 411.522 488.905 411.535 488.991C411.548 489.076 411.541 489.164 411.515 489.246C410.481 492.346 410.248 495.513 410.815 498.746C410.892 499.184 410.856 499.634 410.711 500.056C410.565 500.477 410.316 500.856 409.985 501.156L403.045 507.446Z" fill="#AF8BF8"/>
<path d="M279.055 497.296C276.008 499.33 272.895 499.986 269.715 499.266C268.448 497.36 268.188 495.633 268.935 494.086C269.555 492.8 270.785 491.963 272.625 491.576C276.712 490.71 278.855 492.616 279.055 497.296Z" fill="#1B0C3B"/>
<path d="M279.055 497.296C279.288 499.036 278.528 500.436 276.775 501.496C273.495 503.483 271.142 502.74 269.715 499.266C272.895 499.986 276.008 499.33 279.055 497.296Z" fill="white"/>
<path d="M549.415 506.076C549.105 505.086 548.885 503.766 549.155 502.586C549.192 502.41 549.27 502.244 549.383 502.104C549.496 501.963 549.641 501.851 549.805 501.776C552.152 500.729 554.455 500.889 556.715 502.256C556.772 502.291 556.821 502.338 556.859 502.393C556.897 502.449 556.923 502.511 556.935 502.577C556.948 502.643 556.946 502.711 556.93 502.776C556.915 502.842 556.886 502.903 556.845 502.956C555.552 504.663 553.998 506.019 552.185 507.026C551.095 507.636 549.785 507.266 549.415 506.076Z" fill="#9565F6"/>
<path d="M376.845 512.696C375.585 514.863 375.192 516.979 375.665 519.046C375.7 519.202 375.79 519.34 375.919 519.435C376.047 519.531 376.205 519.577 376.365 519.566C379.675 519.376 383.355 519.006 383.425 523.536C383.532 530.369 383.485 535.313 383.285 538.366C362.838 534.746 342.495 534.689 322.255 538.196C312.882 539.823 304.218 543.053 296.265 547.886C296.184 547.934 296.091 547.96 295.997 547.962C295.902 547.963 295.81 547.94 295.728 547.894C295.646 547.848 295.579 547.781 295.533 547.701C295.486 547.62 295.463 547.529 295.465 547.436L295.495 529.376C297.188 529.356 298.935 528.383 300.735 526.456C300.805 526.379 300.898 526.327 301 526.308C301.102 526.29 301.207 526.305 301.301 526.352C301.394 526.4 301.47 526.476 301.518 526.571C301.565 526.665 301.582 526.772 301.565 526.876C301.092 529.423 301.432 531.993 302.585 534.586C302.965 535.446 303.825 535.726 305.165 535.426C307.345 534.956 308.955 534.906 309.645 532.446C310.445 529.613 310.025 526.979 308.385 524.546C308.312 524.438 308.264 524.315 308.245 524.186C308.226 524.057 308.237 523.926 308.276 523.801C308.316 523.677 308.383 523.563 308.473 523.469C308.563 523.374 308.673 523.302 308.795 523.256C317.095 520.236 326.025 519.346 334.705 517.746C335.065 517.679 335.238 517.466 335.225 517.106C335.132 514.286 336.238 512.256 338.545 511.016C349.772 510.503 361.058 510.826 372.405 511.986C373.805 512.126 375.285 512.363 376.845 512.696Z" fill="#AF8BF8"/>
<path d="M338.545 511.016C336.239 512.256 335.132 514.286 335.225 517.106C335.239 517.466 335.065 517.679 334.705 517.746C326.025 519.346 317.095 520.236 308.795 523.256C308.673 523.302 308.563 523.374 308.473 523.469C308.383 523.563 308.316 523.677 308.276 523.801C308.237 523.926 308.226 524.057 308.245 524.186C308.264 524.315 308.312 524.438 308.385 524.546C310.025 526.979 310.445 529.613 309.645 532.446C308.955 534.906 307.345 534.956 305.165 535.426C303.825 535.726 302.965 535.446 302.585 534.586C301.432 531.993 301.092 529.423 301.565 526.876C301.582 526.772 301.566 526.665 301.518 526.571C301.47 526.476 301.394 526.4 301.301 526.353C301.207 526.305 301.102 526.29 301 526.309C300.898 526.327 300.805 526.379 300.735 526.456C298.935 528.383 297.189 529.356 295.495 529.376C294.575 523.176 299.075 519.806 304.175 517.826C315.109 513.566 326.565 511.296 338.545 511.016Z" fill="#F1EBFE"/>
<path d="M376.845 512.696C384.685 514.056 395.685 516.206 402.125 520.836C403.815 522.046 404.375 524.096 404.465 526.296C404.738 532.956 404.711 539.64 404.385 546.346C404.383 546.401 404.366 546.454 404.336 546.5C404.306 546.546 404.264 546.583 404.214 546.607C404.165 546.631 404.11 546.64 404.055 546.635C404.001 546.63 403.948 546.609 403.905 546.576C398.275 542.476 392.265 540.916 385.805 538.916L385.615 521.396C385.615 521.09 385.465 520.916 385.165 520.876C384.418 520.77 384.048 520.99 384.055 521.536C384.161 527.083 384.101 532.633 383.875 538.186C383.255 538.113 383.058 538.173 383.285 538.366C383.485 535.313 383.531 530.37 383.425 523.536C383.355 519.006 379.675 519.376 376.365 519.566C376.205 519.577 376.047 519.531 375.918 519.436C375.79 519.34 375.7 519.202 375.665 519.046C375.191 516.98 375.585 514.863 376.845 512.696Z" fill="#9565F6"/>
<path d="M566.475 513.676C567.175 516.456 567.705 517.386 569.935 519.296C569.996 519.352 570.04 519.424 570.06 519.505C570.08 519.585 570.076 519.67 570.048 519.748C570.02 519.826 569.97 519.894 569.903 519.943C569.837 519.993 569.758 520.022 569.675 520.026C566.688 520.146 564.265 521.379 562.405 523.726C562.218 523.96 561.981 524.149 561.711 524.281C561.442 524.412 561.147 524.481 560.847 524.484C560.547 524.487 560.251 524.423 559.979 524.297C559.707 524.171 559.467 523.986 559.275 523.756C557.888 522.076 557.072 520.146 556.825 517.966C556.804 517.793 556.834 517.618 556.912 517.462C556.991 517.305 557.113 517.175 557.265 517.086L564.465 512.836C564.647 512.729 564.852 512.665 565.063 512.651C565.274 512.636 565.485 512.671 565.68 512.753C565.875 512.834 566.049 512.96 566.187 513.12C566.325 513.281 566.423 513.471 566.475 513.676Z" fill="#9565F6"/>
<path d="M343.459 521.209C345.629 520.768 347.136 519.168 346.825 517.637C346.513 516.105 344.501 515.221 342.331 515.663C340.161 516.104 338.654 517.704 338.966 519.236C339.277 520.767 341.289 521.651 343.459 521.209Z" fill="#F1EBFE"/>
<path d="M127.145 517.936C128.919 518.123 129.685 519.256 129.445 521.336C129.42 521.548 129.341 521.75 129.216 521.923C129.091 522.096 128.925 522.235 128.732 522.325C128.54 522.415 128.328 522.454 128.117 522.439C127.905 522.423 127.702 522.354 127.525 522.236L122.995 519.266C122.455 518.913 122.402 518.5 122.835 518.026C124.075 516.66 125.205 516.486 126.225 517.506C126.479 517.76 126.785 517.903 127.145 517.936Z" fill="#9565F6"/>
<path d="M457.845 516.986L457.865 529.126C457.866 529.257 457.822 529.384 457.74 529.486C457.658 529.588 457.543 529.659 457.415 529.686C443.982 532.72 430.399 534.806 416.665 535.946C416.601 535.952 416.536 535.944 416.474 535.924C416.412 535.903 416.356 535.871 416.307 535.828C416.258 535.785 416.219 535.732 416.191 535.673C416.163 535.615 416.148 535.551 416.145 535.486L415.735 523.766C419.662 523.52 422.805 523.206 425.165 522.826C433.879 521.44 444.772 519.493 457.845 516.986Z" fill="#9565F6"/>
<path d="M385.805 538.916C384.778 538.83 384.135 538.586 383.875 538.186C384.102 532.633 384.162 527.083 384.055 521.536C384.048 520.99 384.418 520.77 385.165 520.876C385.465 520.916 385.615 521.09 385.615 521.396L385.805 538.916Z" fill="white"/>
<path d="M570.216 532.156C572.256 531.143 574.229 530.566 576.136 530.426C576.371 530.409 576.606 530.462 576.81 530.58C577.015 530.698 577.179 530.874 577.283 531.086C577.386 531.298 577.423 531.536 577.39 531.77C577.357 532.003 577.254 532.221 577.096 532.396L570.736 539.386C570.591 539.547 570.41 539.671 570.208 539.749C570.005 539.827 569.788 539.856 569.571 539.833C569.355 539.811 569.147 539.738 568.964 539.62C568.78 539.503 568.627 539.344 568.516 539.156C566.656 535.976 567.222 533.643 570.216 532.156Z" fill="#9565F6"/>
<path d="M112.635 532.836L121.065 531.506C121.27 531.473 121.479 531.521 121.65 531.638C121.822 531.755 121.941 531.933 121.985 532.136C122.145 532.836 121.968 533.363 121.455 533.716C120.115 534.636 119.465 535.656 119.855 537.336C119.904 537.545 119.895 537.762 119.829 537.966C119.763 538.169 119.642 538.351 119.48 538.492C119.317 538.633 119.12 538.727 118.907 538.765C118.695 538.802 118.476 538.782 118.275 538.706C115.935 537.826 113.848 536.606 112.015 535.046C111.829 534.89 111.693 534.685 111.621 534.453C111.55 534.222 111.547 533.975 111.612 533.741C111.678 533.508 111.809 533.299 111.99 533.138C112.172 532.978 112.395 532.873 112.635 532.836Z" fill="#9565F6"/>
<path d="M240.525 540.986C240.518 540.346 240.788 540.196 241.335 540.536C245.661 543.236 249.691 546.57 253.425 550.536C255.898 553.163 256.735 556.3 255.935 559.946C255.924 559.996 255.904 560.043 255.875 560.084C255.846 560.126 255.808 560.161 255.766 560.188C255.723 560.215 255.675 560.233 255.625 560.242C255.575 560.25 255.524 560.248 255.475 560.236L241.195 556.836C241.063 556.805 240.946 556.732 240.86 556.627C240.775 556.522 240.728 556.391 240.725 556.256L240.525 540.986Z" fill="#AF8BF8"/>
<path d="M445.395 548.316C450.455 547.156 454.025 545.036 458.185 542.506C458.285 542.446 458.399 542.414 458.515 542.412C458.632 542.41 458.746 542.439 458.848 542.496C458.949 542.553 459.034 542.636 459.093 542.736C459.153 542.836 459.184 542.95 459.185 543.066L459.155 555.096C459.155 555.483 458.965 555.71 458.585 555.776L445.825 558.026C445.704 558.048 445.578 558.043 445.459 558.012C445.339 557.98 445.228 557.923 445.133 557.844C445.037 557.765 444.96 557.666 444.907 557.554C444.854 557.442 444.826 557.32 444.825 557.196L444.815 549.036C444.815 548.643 445.009 548.403 445.395 548.316Z" fill="#9565F6"/>
<path d="M590.975 552.566C591.146 552.61 591.302 552.699 591.427 552.825C591.551 552.951 591.638 553.108 591.679 553.28C591.72 553.452 591.714 553.632 591.66 553.801C591.607 553.969 591.508 554.12 591.375 554.236L584.575 560.206C584.371 560.385 584.133 560.519 583.875 560.602C583.617 560.685 583.345 560.714 583.076 560.688C582.807 560.662 582.547 560.581 582.311 560.45C582.075 560.319 581.869 560.14 581.705 559.926C579.805 557.436 575.345 553.596 578.335 550.656C580.205 548.806 583.175 546.296 586.015 546.386C586.197 546.393 586.374 546.453 586.522 546.56C586.671 546.666 586.785 546.814 586.85 546.984C586.915 547.155 586.928 547.341 586.888 547.519C586.848 547.697 586.757 547.86 586.625 547.986L580.765 553.606C580.654 553.714 580.573 553.85 580.531 553.999C580.489 554.148 580.487 554.306 580.525 554.456C580.564 554.607 580.642 554.744 580.75 554.855C580.859 554.965 580.995 555.045 581.145 555.086L581.705 555.236C582.098 555.336 582.432 555.243 582.705 554.956C585.032 552.549 587.788 551.753 590.975 552.566Z" fill="#9565F6"/>
<path d="M383.645 550.516C386.105 552.986 381.996 555.336 379.936 555.846C364.989 559.613 349.815 560.893 334.415 559.686C327.755 559.16 321.085 558.506 314.405 557.726C314.079 557.693 313.839 557.53 313.685 557.236C313.379 556.663 312.949 556.226 312.396 555.926C316.569 554.713 320.815 553.746 325.135 553.026C326.522 552.793 327.489 552.426 328.035 551.926C329.062 550.986 329.159 549.78 328.326 548.306C346.535 546.366 365.845 546.256 383.645 550.516Z" fill="#CAB2FB"/>
<path d="M328.325 548.306C329.158 549.779 329.061 550.986 328.035 551.926C327.488 552.426 326.521 552.793 325.135 553.026C320.815 553.746 316.568 554.713 312.395 555.926L305.675 557.186C305.875 554.519 308.041 552.646 312.175 551.566C319.055 549.766 324.438 548.679 328.325 548.306Z" fill="#F1EBFE"/>
<path d="M383.645 550.516L395.095 554.146C395.324 554.219 395.533 554.344 395.705 554.513C395.877 554.681 396.007 554.888 396.084 555.116C396.161 555.344 396.183 555.587 396.148 555.825C396.114 556.063 396.023 556.289 395.885 556.486C392.755 560.916 382.635 563.436 377.025 564.206C355.515 567.166 331.095 567.116 310.165 560.526C308.551 560.013 307.055 558.899 305.675 557.186L312.395 555.926C312.948 556.226 313.378 556.663 313.685 557.236C313.838 557.529 314.078 557.693 314.405 557.726C321.085 558.506 327.755 559.159 334.415 559.686C349.815 560.893 364.988 559.613 379.935 555.846C381.995 555.336 386.105 552.986 383.645 550.516Z" fill="#9565F6"/>
<path d="M99.8953 553.726C102.125 553.396 107.205 554.896 106.005 558.076C105.921 558.3 105.784 558.501 105.607 558.663C105.43 558.824 105.217 558.941 104.986 559.004C104.755 559.068 104.512 559.076 104.277 559.027C104.042 558.979 103.823 558.876 103.635 558.726L99.4453 555.386C99.3037 555.272 99.1984 555.118 99.1423 554.945C99.0862 554.772 99.0817 554.586 99.1294 554.41C99.1771 554.234 99.2749 554.076 99.4109 553.954C99.5469 553.833 99.7152 553.754 99.8953 553.726Z" fill="#9565F6"/>
<path d="M679.865 600.546C677.175 602.976 674.775 600.806 673.335 598.236C670.762 593.63 667.559 589.166 663.725 584.846C663.611 584.718 663.469 584.617 663.31 584.552C663.151 584.487 662.979 584.46 662.809 584.473C662.638 584.485 662.473 584.537 662.327 584.625C662.18 584.712 662.057 584.832 661.965 584.976C659.392 588.976 656.072 591.983 652.005 593.996C650.575 592.776 647.185 590.496 649.455 588.376C651.468 586.49 652.772 584.206 653.365 581.526C653.381 581.454 653.38 581.379 653.362 581.308C653.343 581.236 653.308 581.17 653.26 581.114C653.211 581.059 653.15 581.016 653.081 580.988C653.013 580.961 652.939 580.95 652.865 580.956C649.575 581.266 646.285 582.516 643.105 581.596C640.159 580.75 637.345 579.673 634.665 578.366C634.472 578.271 634.261 578.217 634.046 578.206C633.831 578.195 633.616 578.228 633.414 578.303C633.212 578.378 633.027 578.493 632.871 578.641C632.715 578.79 632.59 578.968 632.505 579.166L629.225 586.756C628.659 586.949 628.175 587.426 627.775 588.186C619.465 603.996 606.525 611.216 589.405 614.076C589.265 614.1 589.133 614.158 589.02 614.244C588.908 614.331 588.818 614.443 588.759 614.571C588.7 614.699 588.673 614.84 588.681 614.98C588.689 615.12 588.732 615.256 588.805 615.376C589.605 616.676 590.005 618.09 590.005 619.616C590.005 619.976 590.112 620.299 590.325 620.586C594.538 626.246 597.592 631.976 599.485 637.776C602.725 647.703 601.395 656.489 595.495 664.136C589.349 654.616 584.469 644.44 580.855 633.606C581.629 633.06 581.768 632.286 581.275 631.286C578.895 626.416 578.265 622.016 578.715 616.176C579.385 607.486 579.195 601.006 583.585 592.226C583.838 591.706 583.999 591.733 584.065 592.306L584.305 594.466C584.321 594.611 584.367 594.751 584.442 594.876C584.516 595.002 584.616 595.111 584.735 595.196C590.135 599.216 594.685 590.886 588.785 588.826C587.955 588.536 587.155 588.726 586.245 588.656C585.912 588.63 585.838 588.479 586.025 588.206C600.185 566.816 627.345 563.196 649.755 572.136C656.265 574.736 663.795 579.596 670.555 583.516C670.599 583.542 670.649 583.555 670.7 583.554C670.75 583.553 670.8 583.539 670.843 583.512C670.886 583.485 670.921 583.447 670.945 583.402C670.968 583.357 670.978 583.307 670.975 583.256L670.925 582.746C670.913 582.61 670.874 582.478 670.81 582.358C670.747 582.238 670.66 582.132 670.555 582.046C654.865 568.886 640.485 559.806 619.125 562.706C618.792 562.753 618.525 562.64 618.325 562.366L616.745 560.236C637.499 557.096 654.812 563.026 668.685 578.026C669.352 578.74 669.915 579.503 670.375 580.316C670.975 581.346 671.545 582.646 672.425 583.486C677.725 588.566 680.205 594.253 679.865 600.546Z" fill="#AF8BF8"/>
<path d="M108.325 581.736C102.799 578.93 97.5888 576.436 92.6954 574.256C83.9688 570.37 74.9655 568.506 65.6855 568.666C52.4755 568.896 41.3155 571.326 31.9055 580.356C30.1455 581.75 28.5521 583.68 27.1255 586.146C25.1788 587.913 23.5121 589.956 22.1255 592.276C21.7321 592.93 20.9021 594.113 19.6354 595.826C18.7421 597.033 18.0888 598.363 17.6754 599.816C17.2621 601.236 16.8588 602.263 16.4655 602.896C15.9121 603.776 15.2754 604.69 14.5554 605.636C10.9688 600.676 11.1721 595.073 15.1654 588.826C27.8188 569.046 45.3954 559.42 67.8954 559.946C86.0954 560.376 97.5855 567.356 108.325 581.736Z" fill="#F1EBFE"/>
<path d="M616.745 560.236L618.325 562.366C618.525 562.64 618.792 562.753 619.125 562.706C640.485 559.806 654.865 568.886 670.555 582.046C670.66 582.132 670.747 582.238 670.81 582.358C670.874 582.479 670.913 582.611 670.925 582.746L670.975 583.256C670.979 583.307 670.968 583.357 670.945 583.403C670.921 583.448 670.886 583.486 670.843 583.512C670.8 583.539 670.751 583.553 670.7 583.554C670.649 583.555 670.599 583.542 670.555 583.516C663.795 579.596 656.265 574.736 649.755 572.136C627.345 563.196 600.185 566.816 586.025 588.206C585.839 588.48 585.912 588.63 586.245 588.656C587.155 588.726 587.955 588.536 588.785 588.826C594.685 590.886 590.135 599.216 584.735 595.196C584.616 595.111 584.516 595.002 584.442 594.877C584.368 594.751 584.321 594.611 584.305 594.466L584.065 592.306C583.999 591.733 583.839 591.706 583.585 592.226C579.195 601.006 579.385 607.486 578.715 616.176C578.265 622.016 578.895 626.416 581.275 631.286C581.769 632.286 581.629 633.06 580.855 633.606C570.215 610.876 572.625 584.996 593.245 569.386C599.592 564.586 607.425 561.536 616.745 560.236Z" fill="#F1EBFE"/>
<path d="M255.655 569.356C255.955 578.766 250.645 581.616 245.635 587.386C242.649 585.573 241.115 582.863 241.035 579.256C240.902 573.296 240.865 568.956 240.925 566.236C240.928 566.156 240.948 566.076 240.985 566.004C241.021 565.932 241.074 565.87 241.138 565.821C241.202 565.772 241.277 565.738 241.356 565.722C241.435 565.705 241.517 565.707 241.595 565.726L255.655 569.356Z" fill="#AF8BF8"/>
<path d="M445.675 567.056L458.465 570.466C458.603 570.502 458.728 570.575 458.827 570.677C458.926 570.779 458.994 570.907 459.025 571.046C459.772 574.306 459.955 577.283 459.575 579.976C458.175 589.886 445.085 589.696 444.845 578.896C444.758 575.07 444.845 571.26 445.105 567.466C445.132 567.1 445.322 566.963 445.675 567.056Z" fill="#AF8BF8"/>
<path d="M108.325 581.736C112.759 586.41 115.542 592.693 116.675 600.586C115.809 601.373 114.812 601.37 113.685 600.576C113.472 600.424 113.22 600.336 112.958 600.32C112.697 600.304 112.436 600.362 112.206 600.487C111.976 600.612 111.785 600.799 111.656 601.027C111.527 601.255 111.464 601.514 111.475 601.776C111.805 609.846 111.125 617.706 107.995 625.546C105.169 632.646 102.885 640.14 101.145 648.026C100.899 649.153 100.439 650.22 99.7653 651.226C99.0719 652.253 98.5253 653.236 98.1253 654.176C97.0586 656.663 95.3419 658.796 92.9753 660.576C99.8353 648.726 100.985 638.706 103.945 622.846C104.435 620.236 104.585 617.646 104.815 615.026C104.838 614.777 104.77 614.528 104.623 614.325C104.475 614.123 104.26 613.981 104.015 613.926C93.1053 611.426 82.3553 607.386 74.0853 599.216C72.8586 598.01 70.9953 595.82 68.4953 592.646C66.7219 590.4 64.8886 588.18 62.9953 585.986L58.4753 579.276C58.2052 578.877 57.7932 578.597 57.3243 578.493C56.8554 578.389 56.3654 578.469 55.9553 578.716C52.2353 580.966 48.6753 581.676 44.1553 580.926C41.8153 580.54 40.1053 580.43 39.0253 580.596C37.9986 580.756 37.5219 581.24 37.5953 582.046C36.8619 580.966 34.9653 580.403 31.9053 580.356C41.3153 571.326 52.4753 568.896 65.6853 568.666C74.9653 568.506 83.9686 570.37 92.6953 574.256C97.5886 576.436 102.799 578.93 108.325 581.736Z" fill="#664C7A"/>
<path d="M255.655 569.356C256.445 574.216 257.195 580.156 254.365 584.196C252.278 587.19 249.368 588.253 245.635 587.386C250.645 581.616 255.955 578.766 255.655 569.356Z" fill="#9565F6"/>
<path d="M31.905 580.356C34.965 580.403 36.8617 580.966 37.595 582.046C36.805 586.206 43.245 587.346 43.345 590.286C43.365 590.773 43.2217 591.133 42.915 591.366C42.875 591.053 42.5783 590.996 42.025 591.196C41.7983 591.276 41.5717 591.436 41.345 591.676C39.705 593.383 37.7183 593.983 35.385 593.476C35.2242 593.442 35.0726 593.374 34.94 593.277C34.8074 593.181 34.6967 593.058 34.615 592.916C32.425 589.186 29.285 589.126 27.125 586.146C28.5517 583.68 30.145 581.75 31.905 580.356Z" fill="#AF8BF8"/>
<path d="M679.865 600.546C677.085 606.146 673.528 608.696 669.195 608.196C666.955 607.943 664.378 606.523 661.465 603.936C657.865 600.743 654.712 597.43 652.005 593.996C656.072 591.983 659.392 588.976 661.965 584.976C662.056 584.832 662.18 584.712 662.326 584.625C662.473 584.537 662.638 584.485 662.808 584.473C662.979 584.46 663.151 584.487 663.31 584.552C663.469 584.617 663.611 584.718 663.725 584.846C667.558 589.166 670.762 593.629 673.335 598.236C674.775 600.806 677.175 602.976 679.865 600.546Z" fill="#664C7A"/>
<path d="M27.1247 586.146C29.2847 589.126 32.4247 589.186 34.6147 592.916C34.6964 593.058 34.8071 593.181 34.9397 593.277C35.0723 593.373 35.2239 593.441 35.3847 593.476C37.718 593.983 39.7047 593.383 41.3447 591.676C41.5713 591.436 41.798 591.276 42.0247 591.196C42.578 590.996 42.8747 591.053 42.9147 591.366C38.1947 597.676 29.5747 607.786 21.4547 608.796C18.848 609.116 16.548 608.063 14.5547 605.636C15.2747 604.689 15.9114 603.776 16.4647 602.896C16.858 602.263 17.2613 601.236 17.6747 599.816C18.088 598.363 18.7414 597.033 19.6347 595.826C20.9014 594.113 21.7314 592.929 22.1247 592.276C23.5114 589.956 25.178 587.913 27.1247 586.146Z" fill="#664C7A"/>
<path d="M62.9953 585.986C64.8887 588.18 66.722 590.4 68.4953 592.646C70.9953 595.82 72.8587 598.01 74.0853 599.216C82.3553 607.386 93.1053 611.426 104.015 613.926C104.26 613.981 104.475 614.123 104.623 614.326C104.77 614.528 104.838 614.777 104.815 615.026C104.585 617.646 104.435 620.236 103.945 622.846C100.985 638.706 99.8353 648.726 92.9753 660.576C91.0487 662.55 88.772 664.046 86.1453 665.066C79.2653 659.466 83.4653 650.746 86.4253 643.816C89.7453 636.07 92.612 628.91 95.0253 622.336C96.3253 618.79 95.6253 618.34 92.9253 620.986C88.4187 625.393 83.182 629.166 77.2153 632.306C68.6253 636.826 62.0353 636.166 54.6753 630.376C48.702 625.676 43.272 620.43 38.3853 614.636C38.2166 614.441 38.1281 614.188 38.1374 613.929C38.1466 613.67 38.253 613.423 38.4353 613.236C45.2753 606.356 52.1353 599.32 59.0153 592.126C60.502 590.566 61.8287 588.52 62.9953 585.986Z" fill="#AF8BF8"/>
<path d="M629.225 586.756L653.835 612.586C654.091 612.853 654.24 613.204 654.253 613.573C654.266 613.942 654.142 614.303 653.905 614.586C648.585 620.906 642.489 626.463 635.615 631.256C629.505 635.516 624.275 636.866 617.675 633.566C609.735 629.596 603.285 623.706 595.915 618.876C594.862 618.183 593.735 617.72 592.535 617.486C592.109 617.406 592.002 617.556 592.215 617.936C598.455 628.886 605.715 640.186 609.835 652.086C611.815 657.816 611.405 662.486 605.785 665.336C602.259 667.123 598.829 666.723 595.495 664.136C601.395 656.49 602.725 647.703 599.485 637.776C597.592 631.976 594.539 626.246 590.325 620.586C590.112 620.3 590.005 619.976 590.005 619.616C590.005 618.09 589.605 616.676 588.805 615.376C588.732 615.257 588.689 615.121 588.681 614.98C588.673 614.84 588.7 614.7 588.759 614.571C588.818 614.443 588.908 614.331 589.021 614.245C589.133 614.158 589.265 614.101 589.405 614.076C606.525 611.216 619.465 603.996 627.775 588.186C628.175 587.426 628.659 586.95 629.225 586.756Z" fill="#664C7A"/>
<path d="M116.676 600.586C118.456 620.916 112.306 636.986 104.196 654.306C101.416 660.266 93.3655 670.056 86.1455 665.066C88.7722 664.046 91.0488 662.55 92.9755 660.576C95.3422 658.796 97.0588 656.663 98.1255 654.176C98.5255 653.236 99.0722 652.253 99.7655 651.226C100.439 650.22 100.899 649.153 101.146 648.026C102.886 640.14 105.169 632.646 107.995 625.546C111.125 617.706 111.806 609.846 111.476 601.776C111.464 601.515 111.527 601.255 111.656 601.027C111.785 600.799 111.976 600.612 112.206 600.487C112.436 600.362 112.697 600.304 112.959 600.32C113.22 600.336 113.472 600.425 113.686 600.576C114.812 601.37 115.809 601.373 116.676 600.586Z" fill="#9565F6"/>
<path d="M67.9654 614.896L73.3854 619.706C73.7097 619.994 73.9704 620.347 74.1508 620.742C74.3311 621.136 74.4272 621.564 74.4328 621.998C74.4385 622.432 74.3536 622.862 74.1836 623.261C74.0135 623.66 73.7621 624.02 73.4454 624.316L68.2854 629.156C67.7016 629.704 66.9297 630.006 66.1294 630C65.3291 629.995 64.5615 629.682 63.9854 629.126L58.7654 624.106C58.4586 623.812 58.2153 623.458 58.0503 623.066C57.8852 622.674 57.802 622.253 57.8058 621.828C57.8095 621.402 57.9001 620.983 58.072 620.594C58.2439 620.205 58.4935 619.855 58.8054 619.566L63.7654 614.946C64.3336 614.417 65.079 614.118 65.8557 614.109C66.6325 614.099 67.3848 614.38 67.9654 614.896Z" fill="#F1EBFE"/>
<path d="M645.755 664.336C655.175 657.229 656.235 647.986 648.935 636.606L650.495 634.666C650.722 634.386 650.938 634.393 651.145 634.686C655.132 640.273 658.332 646.259 660.745 652.646C662.365 656.946 661.975 661.176 658.285 663.896C654.578 666.636 650.402 666.783 645.755 664.336Z" fill="#664C7A"/>
<path d="M52.7748 644.086C50.0548 653.673 45.2715 660.959 38.4248 665.946C29.9048 662.026 30.1148 656.416 33.9948 648.696C36.2815 644.143 38.6748 639.693 41.1748 635.346C41.3348 635.066 41.5415 635.026 41.7948 635.226L52.7748 644.086Z" fill="#AF8BF8"/>
<path d="M648.935 636.606C656.235 647.986 655.175 657.23 645.755 664.336C641.395 658.883 637.801 652.683 634.975 645.736C634.848 645.43 634.941 645.226 635.255 645.126C640.215 643.493 644.775 640.653 648.935 636.606Z" fill="#AF8BF8"/>
<path d="M52.7748 644.086L57.5848 646.046C57.9509 646.196 58.2439 646.482 58.4009 646.845C58.558 647.208 58.5666 647.617 58.4248 647.986C56.3581 653.326 53.3348 658.053 49.3548 662.166C46.0681 665.56 42.4248 666.82 38.4248 665.946C45.2715 660.96 50.0548 653.673 52.7748 644.086Z" fill="#9565F6"/>
</svg>
