<svg xmlns="http://www.w3.org/2000/svg" id="Layer_1" width="419.64" height="115.792" data-name="Layer 1" viewBox="0 0 419.64 115.792"><title>cncf-member-endusersupporter-black</title><path d="M15.565 14.891V27.14l.069.071 12.247 12.245v8.166L15.565 35.306v25.776h25.776l-2.112-2.11-10.207-10.208h8.166l6.124 6.125 6.126 6.125.068.068h12.249V48.833l-.069-.069-6.124-6.124-6.124-6.123v-8.165l10.207 10.205 2.11 2.111V14.891H35.978l12.32 12.32h-8.167L27.881 14.96l-.068-.069zm97.263 50.692a4.62 4.62 0 0 0 3.55-1.576 5.81 5.81 0 0 0 0-7.664 4.76 4.76 0 0 0-7.1 0 5.81 5.81 0 0 0 0 7.664 4.62 4.62 0 0 0 3.55 1.576m38.705-10.491v5.655h2.527a3.35 3.35 0 0 0 2.551-.758 3.24 3.24 0 0 0 .674-2.214 2.35 2.35 0 0 0-.879-2.069 4.83 4.83 0 0 0-2.731-.614Zm175.371.048h-2.093v10.227h2.382a5.57 5.57 0 0 0 3.959-1.3 4.93 4.93 0 0 0 1.383-3.777 5.06 5.06 0 0 0-1.383-3.815 5.92 5.92 0 0 0-4.248-1.335M158.366 14.956a8.22 8.22 0 0 0-6.332 2.834 9.82 9.82 0 0 0-2.576 6.847 9.74 9.74 0 0 0 2.576 6.825 8.535 8.535 0 0 0 12.664 0 9.74 9.74 0 0 0 2.576-6.825 9.82 9.82 0 0 0-2.576-6.847 8.22 8.22 0 0 0-6.332-2.834m141.596 12.493h7.513l-3.735-8.715zm86.222 38.134a4.63 4.63 0 0 0 3.55-1.576 5.81 5.81 0 0 0 0-7.664 4.76 4.76 0 0 0-7.1 0 5.81 5.81 0 0 0 0 7.664 4.63 4.63 0 0 0 3.55 1.576m-40.197-8.71-2.117 4.885h4.211zm-79.649 3.309a5.46 5.46 0 0 0 1.443 3.825 4.785 4.785 0 0 0 7.1 0 5.81 5.81 0 0 0 0-7.664 4.76 4.76 0 0 0-7.1 0 5.5 5.5 0 0 0-1.443 3.839m-43.903-44.539h-3.734v18.245h4.25q4.593 0 7.06-2.318 2.468-2.319 2.47-6.74a9.02 9.02 0 0 0-2.47-6.804q-2.468-2.382-7.576-2.383" style="fill:none"/><path d="m115.46 34.403-4.293-4.422a9.88 9.88 0 0 1-8.07 3.907 8.36 8.36 0 0 1-6.14-2.533 9.08 9.08 0 0 1-2.532-6.718 8.6 8.6 0 0 1 2.683-6.654 9.2 9.2 0 0 1 6.46-2.468 9.76 9.76 0 0 1 7.9 3.949l4.163-4.722a15.85 15.85 0 0 0-12.363-5.624 15.4 15.4 0 0 0-11.183 4.465 14.94 14.94 0 0 0-4.572 11.14A14.8 14.8 0 0 0 92 35.777a15.67 15.67 0 0 0 11.418 4.378q6.932 0 12.042-5.752m24.769-.558h-12.793V9.805h-6.696v30.007h19.489zm33.871-9.229a14.83 14.83 0 0 0-4.551-11.055 16.35 16.35 0 0 0-22.409 0 14.82 14.82 0 0 0-4.55 11.055 14.82 14.82 0 0 0 4.55 11.053 16.35 16.35 0 0 0 22.409 0 14.82 14.82 0 0 0 4.55-11.053m-9.402 6.846a8.535 8.535 0 0 1-12.664 0 9.74 9.74 0 0 1-2.576-6.825 9.82 9.82 0 0 1 2.576-6.847 8.492 8.492 0 0 1 12.664 0 9.82 9.82 0 0 1 2.576 6.847 9.74 9.74 0 0 1-2.576 6.825m40.353-4.872V9.805h-6.696v16.57a8.92 8.92 0 0 1-1.653 5.689 5.43 5.43 0 0 1-4.488 2.082 5.48 5.48 0 0 1-4.506-2.082 8.83 8.83 0 0 1-1.674-5.688V9.806h-6.697V26.59q0 6.483 3.627 10.002a13.923 13.923 0 0 0 18.482.022q3.603-3.498 3.605-10.024m29.877-12.857q-4.293-3.928-12.32-3.928h-10.604v30.007h10.26q8.586 0 12.772-4.078 4.185-4.078 4.185-11.075 0-6.998-4.293-10.926m-4.915 17.837q-2.47 2.318-7.062 2.318h-4.25V15.643h3.735q5.109 0 7.577 2.383a9.02 9.02 0 0 1 2.468 6.804q0 4.422-2.468 6.74m54.025-21.765h-6.697v19.318L262.616 9.805h-6.268v30.007h6.698V21.009l14.294 18.803h6.697zm22.923 0h-6.482l-12.965 30.007h7.126l2.79-6.482h12.579l2.79 6.482h7.126Zm-6.998 17.644 3.778-8.715 3.735 8.715Zm42.456-17.644h-23.696V15.6h8.499v24.212h6.698V15.6h8.499zm4.893 0h6.698v30.007h-6.698zm40.053 0h-7.256l-7.641 19.103-7.641-19.103h-7.255l12.063 30.007h5.666zm25.669 24.083h-15.41v-6.225h13.436v-5.709h-13.436v-6.182h14.938V9.805h-21.636v30.007h22.108zm-317.35 21.18a5.47 5.47 0 0 1 4.428 2.214l2.334-2.647a8.89 8.89 0 0 0-6.93-3.153 8.63 8.63 0 0 0-6.269 2.503 8.89 8.89 0 0 0-.048 12.44 9.08 9.08 0 0 0 13.15-.769l-2.406-2.478a5.54 5.54 0 0 1-4.524 2.19 4.68 4.68 0 0 1-3.44-1.421 5.1 5.1 0 0 1-1.42-3.765 4.82 4.82 0 0 1 1.504-3.73 5.16 5.16 0 0 1 3.621-1.384m17.133 13.788a8.64 8.64 0 0 0 6.28-2.49 8.8 8.8 0 0 0 0-12.393 9.16 9.16 0 0 0-12.56 0 8.8 8.8 0 0 0 0 12.392 8.64 8.64 0 0 0 6.28 2.491m-3.538-12.513a4.76 4.76 0 0 1 7.1 0 5.81 5.81 0 0 1 0 7.664 4.785 4.785 0 0 1-7.1 0 5.81 5.81 0 0 1 0-7.664m34.363 12.345v-16.82h-5.053l-4.356 9.24-4.332-9.24h-5.077v16.82h3.754V58.1l4.524 9.192h2.238l4.548-9.192v10.588zm4.139-16.82v16.82h3.753v-4.693h2.239q3.73 0 5.546-1.444a5.47 5.47 0 0 0 1.817-4.559 5.73 5.73 0 0 0-1.769-4.62q-1.768-1.505-5.643-1.504Zm9.505 5.907a3.24 3.24 0 0 1-.674 2.214 3.35 3.35 0 0 1-2.55.758h-2.528v-5.655h2.142a4.83 4.83 0 0 1 2.731.614 2.35 2.35 0 0 1 .879 2.07m13.763 11.08a7.12 7.12 0 0 0 5.174-1.961 7.47 7.47 0 0 0 2.021-5.619v-9.408h-3.754v9.288a5 5 0 0 1-.926 3.188 3.04 3.04 0 0 1-2.515 1.167 3.07 3.07 0 0 1-2.526-1.167 4.95 4.95 0 0 1-.939-3.188v-9.288h-3.753v9.408a7.45 7.45 0 0 0 2.033 5.607 7.14 7.14 0 0 0 5.185 1.973m18.216-.168V55.116h4.765v-3.248h-13.283v3.248h4.764v13.572zm7.508-16.82h3.755v16.82h-3.755zm11.646 6.28 8.013 10.54h3.754v-16.82h-3.754v10.828l-8.253-10.828h-3.514v16.82h3.754zm23.895-3.2a5.6 5.6 0 0 1 2.057.372 7.5 7.5 0 0 1 2.082 1.36l1.949-2.815a9.15 9.15 0 0 0-6.293-2.383 8.53 8.53 0 0 0-6.184 2.503 8.89 8.89 0 0 0-.049 12.44 8.55 8.55 0 0 0 6.22 2.455 8.83 8.83 0 0 0 6.93-2.79v-5.97h-3.776v4.62a6.45 6.45 0 0 1-3.25.746 4.55 4.55 0 0 1-3.356-1.432 5.81 5.81 0 0 1 .06-7.652 4.93 4.93 0 0 1 3.61-1.455m27.961.218v-3.297h-11.551v16.82h3.755v-6.593h7.412v-3.297h-7.412v-3.633zm4.765-1.192a8.8 8.8 0 0 0 0 12.392 9.16 9.16 0 0 0 12.56 0 8.8 8.8 0 0 0 0-12.392 9.16 9.16 0 0 0-12.56 0m9.841 2.37a5.81 5.81 0 0 1 0 7.664 4.785 4.785 0 0 1-7.099 0 5.81 5.81 0 0 1 0-7.664 4.76 4.76 0 0 1 7.1 0m15.424 12.513a7.12 7.12 0 0 0 5.174-1.961 7.47 7.47 0 0 0 2.021-5.619v-9.408h-3.754v9.288a5 5 0 0 1-.926 3.188 3.04 3.04 0 0 1-2.515 1.167 3.08 3.08 0 0 1-2.527-1.167 4.95 4.95 0 0 1-.938-3.188v-9.288h-3.754v9.408a7.45 7.45 0 0 0 2.033 5.607 7.14 7.14 0 0 0 5.186 1.973m14.606-16.988h-3.514v16.82h3.755v-10.54l8.013 10.54h3.753v-16.82h-3.753v10.828zm22.089 0h-5.943v16.82h5.751q4.813 0 7.16-2.286a8.27 8.27 0 0 0 2.346-6.209 7.89 7.89 0 0 0-2.407-6.124q-2.407-2.201-6.906-2.201m4.152 12.2a5.57 5.57 0 0 1-3.96 1.3h-2.38V55.14h2.092a5.92 5.92 0 0 1 4.248 1.335 5.06 5.06 0 0 1 1.383 3.815 4.93 4.93 0 0 1-1.383 3.777m11.297.988h7.05l1.565 3.633h3.994l-7.267-16.82h-3.633l-7.268 16.82h3.995Zm3.537-8.182 2.094 4.885h-4.21Zm16.917 11.815V55.116h4.765v-3.248h-13.284v3.248h4.765v13.572zm7.507-16.82h3.755v16.82h-3.755zm15.761 16.988a8.64 8.64 0 0 0 6.28-2.49 8.8 8.8 0 0 0 0-12.393 9.16 9.16 0 0 0-12.56 0 8.8 8.8 0 0 0 0 12.392 8.64 8.64 0 0 0 6.28 2.491m-3.537-12.513a4.76 4.76 0 0 1 7.099 0 5.81 5.81 0 0 1 0 7.664 4.785 4.785 0 0 1-7.1 0 5.81 5.81 0 0 1 0-7.664m27.313-4.475v10.828l-8.254-10.828h-3.514v16.82h3.754v-10.54l8.014 10.54h3.753v-16.82zM15.565 61.082V48.764H6.324v21.558h21.557v-9.24zm46.19-12.249v12.249H49.506l-.068-.068v9.308h21.556V48.764h-9.308zM15.565 27.14V14.891h12.248l.068.069V5.652H6.324v21.559h9.31zm46.19-12.249v12.32h9.239V5.652H49.438v9.239zm-33.874.069 12.25 12.251h8.167l-12.32-12.32h13.46V5.652H27.881zm15.431 39.929-6.124-6.125h-8.166l10.207 10.208 2.112 2.11h-13.46v9.24h21.557v-9.308zm18.443-18.44v4.219l-2.11-2.111-10.207-10.205v8.165l6.124 6.123 6.124 6.124h9.308V27.211h-9.239z"/><path d="m15.565 35.306 12.316 12.316v-8.166L15.634 27.211h-9.31v21.553h9.241zM6.324 111.46H413.7V81.715H6.324Zm277.248-21.77h6.104a5.32 5.32 0 0 1 3.89 1.354 4.2 4.2 0 0 1 1.145 3.052v.038a4.146 4.146 0 0 1-2.861 4.139l3.261 4.768h-3.433l-2.86-4.272h-2.31v4.272h-2.936Zm-13.727 0h10.07v2.613h-7.152v2.708h6.294v2.613h-6.294v2.804h7.248v2.613h-10.166Zm-14.72 0h6.198a4.82 4.82 0 0 1 3.491 1.182 3.07 3.07 0 0 1 .915 2.27v.038a3.11 3.11 0 0 1-1.754 2.88c1.544.592 2.499 1.488 2.499 3.281v.038c0 2.442-1.985 3.662-4.997 3.662h-6.352Zm-17.503 0h3.166l3.51 5.645 3.509-5.645h3.166v13.351h-2.918v-8.716l-3.757 5.703h-.077l-3.719-5.646v8.66h-2.88Zm-13.728 0h10.07v2.613h-7.152v2.708h6.294v2.613h-6.294v2.804h7.248v2.613h-10.166Zm-17.504 0h3.167l3.51 5.645 3.51-5.645h3.165v13.351h-2.919v-8.716l-3.757 5.703h-.076l-3.72-5.646v8.66h-2.88Zm-21.411 0h6.103a5.32 5.32 0 0 1 3.891 1.354 4.2 4.2 0 0 1 1.145 3.052v.038a4.146 4.146 0 0 1-2.862 4.139l3.262 4.768h-3.433l-2.861-4.272h-2.308v4.272h-2.937Zm-13.728 0h10.07v2.613h-7.152v2.708h6.294v2.613h-6.294v2.804h7.248v2.613h-10.166Zm-13.156 0 3.491 9.403 3.49-9.403h3.166l-5.397 13.447h-2.594l-5.398-13.447Zm-12.66 0h2.937v10.681h6.656v2.67h-9.594Zm-7.227 0h2.937v13.351h-2.937Zm-9.246 7.954c-2.689-.687-4.425-1.43-4.425-4.082v-.038c0-2.423 1.945-4.024 4.673-4.024a7.73 7.73 0 0 1 4.96 1.697l-1.526 2.213a6.27 6.27 0 0 0-3.472-1.317c-1.126 0-1.716.515-1.716 1.163v.04c0 .876.571 1.162 2.88 1.753 2.708.706 4.234 1.679 4.234 4.006v.038c0 2.652-2.022 4.139-4.902 4.139a8.5 8.5 0 0 1-5.665-2.136l1.736-2.079a6.12 6.12 0 0 0 3.986 1.621c1.202 0 1.926-.476 1.926-1.259v-.038c0-.744-.457-1.125-2.689-1.697"/><path d="M291.735 94.287v-.039c0-1.258-.877-1.907-2.307-1.907h-2.92v3.834h2.976c1.431 0 2.251-.763 2.251-1.888m-28.18 4.73v-.038c0-.897-.667-1.45-2.174-1.45h-3.396v2.937h3.492c1.296 0 2.078-.457 2.078-1.449m-70.413-4.73v-.039c0-1.258-.877-1.907-2.308-1.907h-2.918v3.834h2.976c1.43 0 2.25-.763 2.25-1.888m69.67-.611v-.038c0-.877-.687-1.373-1.927-1.373h-2.9v2.822h2.71c1.296 0 2.117-.419 2.117-1.41"/></svg>