<svg xmlns="http://www.w3.org/2000/svg" xml:space="preserve" id="Layer_1" width="1000" height="950" x="0" y="0" viewBox="0 0 1000 950"><style>.st3{fill:#fff}.st8{fill:#7f7b79}</style><path d="M1.027 373.842v452.102L500 719.126l498.973 106.818V373.842zM1.027 0h997.946v351.733H1.027z" class="st8"/><path d="m988.271 864.228 10.702 2.266v-19.25l-10.702-2.266-486.32-102.972-1.949-.41L15.16 844.359l-14.133 2.995v19.251l14.133-2.995 484.842-102.769z" class="st8"/><path d="M998.973 825.944V373.842H500v345.284zM500 0h498.973v351.733H500zm.002 760.841 488.269 103.387 10.702 2.266v-19.25l-10.702-2.266-486.32-102.972-1.949-.411-.002.001v19.246z" style="opacity:.1"/><path d="M415.28 64.312h39.419v4.03h-17.353v45.705h-4.714V68.41H415.28zm44.064 0h4.714V85.9h29.513V64.312h4.714v49.735h-4.714V89.999h-29.513v24.048h-4.714zm49.052 0h34.364v4.03h-29.582V86.31h27.669v4.03H513.11v19.608h29.923v4.099h-34.705V64.312zM415.28 237.428h31.562v4.03h-26.78v17.968h23.774v4.03h-23.843v23.707h-4.713zm58.206-1.025c15.576 0 23.365 12.229 23.365 25.892s-7.789 25.893-23.365 25.893c-15.645 0-23.501-12.23-23.501-25.893s7.788-25.892 23.501-25.892m0 47.754c13.117 0 18.65-11 18.65-21.862s-5.601-21.861-18.65-21.861c-13.185 0-18.719 10.999-18.719 21.861s5.534 21.862 18.719 21.862m30.264-46.729h4.714v30.811c0 11.477 5.33 15.918 14.552 15.918 9.291 0 14.62-4.44 14.62-15.918v-30.811h4.714v31.836c0 10.247-5.534 18.924-19.334 18.924-13.732 0-19.265-8.677-19.265-18.924zm48.164 0h5.26l28.967 42.083h.137v-42.083h4.714v49.735h-5.26l-28.967-42.084h-.137v42.084h-4.714zm49.12 0h17.216c15.03.341 22.818 8.403 22.818 24.867s-7.788 24.526-22.818 24.868h-17.216zm4.714 45.704h10.111c14.279 0 20.495-5.943 20.495-20.837s-6.216-20.836-20.495-20.836h-10.11zm57.524-45.704h5.26l19.47 49.735h-5.055l-6.08-15.44h-22.613l-6.012 15.44h-5.056zm-7.515 30.264h19.538l-9.632-25.482zm26.712-30.264h39.419v4.03h-17.353v45.705h-4.714v-45.704H682.47zm44.474 0h4.714v49.735h-4.714zm35.935-1.025c15.577 0 23.365 12.229 23.365 25.892s-7.788 25.893-23.365 25.893c-15.644 0-23.501-12.23-23.501-25.893s7.788-25.892 23.501-25.892m0 47.754c13.117 0 18.65-11 18.65-21.862s-5.601-21.861-18.65-21.861c-13.185 0-18.719 10.999-18.719 21.861s5.534 21.862 18.72 21.862m30.674-46.729h5.26l28.967 42.083h.136v-42.083h4.714v49.735h-5.26l-28.967-42.084h-.136v42.084h-4.714zM415.28 128.872h27.395v66.13h39.35v22.819h-66.814v-88.95zm84.713 0h27.395v88.949h-27.395zm47.822 0h28.01l25.893 47.617h.273v-47.617h25.892v88.949H601.24l-27.258-48.574h-.273v48.574h-25.893zm181.383 54.585c0 24.8-13.049 36.482-40.512 36.482-27.396 0-40.65-11.683-40.65-36.482v-54.585h27.396v48.437c0 8.95-.137 20.427 13.322 20.427 12.98 0 12.98-11.478 12.98-20.427v-48.437h27.395v54.585zm43.586-12.98-29.308-41.605h32.178l13.458 24.184 13.185-24.184h30.401L804.21 170.75l31.768 47.07H802.98l-15.167-26.506-15.713 26.507h-31.426z" class="st3"/><path d="M197.621 242.415v-89.427h-44.817v134.175h134.244v-44.748z" style="opacity:.8;fill:#fff"/><path d="M376.407 63.492H152.804v67.088h44.748v-22.135h134.176v133.97h-22.34v44.748h67.019zm-61.43 460.125q0-7.758-5.855-12.996-5.853-5.238-20.762-8.808-18.031-4.303-28.136-12.674-10.11-8.372-10.109-21.048 0-13.3 10.889-22.219c10.889-8.919 16.664-8.92 28.216-8.92q18.653.001 29.698 10.225 11.043 10.226 10.654 23.727l-.156.469h-14.674q0-9.99-6.596-16.156t-18.926-6.166q-11.475 0-17.6 5.19-6.13 5.192-6.129 13.541 0 7.417 6.635 12.372 6.633 4.957 21.542 8.702 17.952 4.449 27.318 13.113 9.367 8.664 9.367 21.465 0 13.737-11.24 22.087-11.24 8.354-29.347 8.352-17.017 0-30.09-9.249t-12.683-24.703l.156-.468h14.674q0 10.928 8.04 16.625 8.038 5.698 19.903 5.697 11.63 0 18.42-4.887 6.79-4.89 6.79-13.27m53.404 28.616h-15.453V438.592h15.454zm43.119-12.097h53.777v12.097h-69.154V438.592H411.5zm92.934-16.157 2.575 8.976h.469l2.575-8.977 29.347-85.387h16.625L513.8 552.234h-13.19l-42.227-113.642h16.703zm137.351-24.43h-52.06v40.587h60.022v12.097h-75.398V438.592h74.54v12.097h-59.163v36.762h52.06zm42.696 3.434v49.25h-15.377V438.67h41.133q18.655 0 28.489 8.273 9.835 8.274 9.835 24.04 0 8.743-4.567 15.22-4.566 6.48-13.307 10.303 9.366 3.044 13.463 9.873 4.098 6.83 4.098 16.898v10.694q0 5.308 1.171 9.521 1.17 4.215 4.059 6.87v1.872h-15.845q-3.044-2.653-3.903-7.804a64.4 64.4 0 0 1-.858-10.616v-10.38q0-9.21-5.386-14.83-5.385-5.62-14.44-5.62zm0-12.098h24.195q13.035 0 18.771-4.947c5.736-4.947 5.738-8.322 5.738-15.074q-.001-9.581-5.581-14.839-5.582-5.258-17.367-5.258H684.48zM316.744 599.361l21.63 55.147h.28l21.63-55.147h11.746v67.872h-9.183v-26.85l.932-27.596-.233-.047-22.002 54.493h-6.107l-21.91-54.353-.232.047.886 27.456v26.85h-9.184v-67.872zm112.389 36.407H398.04v24.24h35.847v7.225h-45.03v-67.872h44.517v7.226H398.04v21.956h31.092zm27.27-36.407 21.63 55.147h.28l21.63-55.147h11.746v67.872h-9.183v-26.85l.932-27.596-.233-.047-22.002 54.493h-6.107l-21.91-54.353-.232.047.886 27.456v26.85h-9.184v-67.872zm72.114 67.872v-67.872h22.142q10.628.001 16.642 4.592 6.013 4.592 6.012 13.775.001 4.522-2.89 8.087-2.89 3.567-7.598 5.291 6.154 1.305 9.673 6.014 3.52 4.708 3.52 10.954 0 9.324-6.038 14.241-6.036 4.919-16.384 4.918zm9.183-39.016h14.87q5.128 0 8.344-2.82 3.217-2.821 3.217-7.855 0-5.5-3.473-8.228t-9.999-2.727H537.7zm0 7.224v24.567h15.896q6.246 0 9.742-3.088 3.495-3.088 3.496-8.754 0-5.943-2.913-9.334t-8.974-3.39zm92.112.327H598.72v24.24h35.846v7.225h-45.03v-67.872h44.518v7.226H598.72v21.956h31.092zm24.707 2.052v29.413h-9.184v-67.825h24.566q11.14 0 17.015 4.942 5.873 4.94 5.873 14.357 0 5.22-2.727 9.09t-7.948 6.153q5.595 1.818 8.041 5.897 2.448 4.08 2.448 10.092v6.386q0 3.17.699 5.688.7 2.517 2.424 4.101v1.12h-9.462q-1.82-1.585-2.331-4.662a38.4 38.4 0 0 1-.513-6.34v-6.2q0-5.5-3.217-8.856c-3.217-3.356-5.02-3.357-8.624-3.357zm0-7.226h14.45q7.785 0 11.21-2.954c3.426-2.954 3.427-4.971 3.427-9.003q0-5.722-3.333-8.863t-10.372-3.14H654.52z" class="st3"/></svg>