<svg width="800" height="196" viewBox="0 0 800 196" fill="none" xmlns="http://www.w3.org/2000/svg">
<path d="M188.013 126.599C192.204 113.824 193.685 100.316 192.362 86.9363C191.039 73.5569 186.941 60.6003 180.33 48.8933L113.999 47.2136V46.3841L177.845 44.7666C170.134 32.6283 159.819 22.3572 147.648 14.6978L96.4139 13.4121V12.5861L141.949 11.4351C123.291 1.43334 101.859 -2.14713 80.9631 1.24672C60.0671 4.64058 40.8698 14.8199 26.3363 30.2126L83.6364 31.6642V32.4937L22.9112 34.0144C8.09278 51.4264 -0.030765 73.552 8.75589e-05 96.4159C8.75589e-05 97.4528 8.67641e-05 98.4551 0.0519296 99.4712C0.0481717 99.5391 0.0481717 99.6072 0.0519296 99.6751L22.9388 100.256V101.085L0.127966 101.662C0.131648 101.73 0.131648 101.798 0.127966 101.866C0.961484 116.912 5.32954 131.55 12.8778 144.592L51.0238 145.556V146.386L14.5126 147.312C23.4683 161.69 36.04 173.467 50.972 181.466C52.1609 182.112 53.3637 182.724 54.5837 183.311V103.221H63.8325C64.1884 103.221 64.541 103.29 64.8699 103.426C65.1989 103.563 65.4978 103.762 65.7495 104.014C66.0012 104.265 66.2008 104.564 66.3368 104.893C66.4728 105.222 66.5426 105.575 66.5421 105.931V188.112C85.9608 194.405 106.871 194.405 126.289 188.112V105.931C126.289 105.575 126.359 105.222 126.495 104.893C126.631 104.564 126.83 104.265 127.082 104.014C127.334 103.762 127.632 103.563 127.961 103.426C128.29 103.29 128.643 103.221 128.999 103.221H138.241V183.322C139.443 182.741 140.643 182.133 141.814 181.5C151.244 176.463 159.77 169.893 167.045 162.059L143.097 161.451V160.622L168.935 159.968C176.862 150.94 183.027 140.507 187.111 129.208L152.632 128.334V127.504L188.013 126.599ZM151.616 100.677H41.2151L39.2209 92.7074H54.5837V84.1637H57.7219C58.8421 84.1642 59.9512 84.3853 60.9859 84.8143C62.0206 85.2434 62.9607 85.8721 63.7524 86.6645C64.5442 87.4569 65.1721 88.3975 65.6004 89.4326C66.0286 90.4676 66.2488 91.5769 66.2483 92.6971H90.4416V81.3193H31.8316C30.6876 72.2122 25.2821 65.0994 25.2821 65.0994C41.2151 68.7941 96.4139 69.0809 96.4139 69.0809C96.4139 69.0809 151.613 68.7941 167.539 65.0994C167.539 65.0994 162.144 72.2122 161 81.3193H102.393V92.7005H126.586C126.586 91.5796 126.807 90.4697 127.236 89.4342C127.665 88.3986 128.294 87.4577 129.087 86.6653C129.88 85.8729 130.821 85.2444 131.857 84.8158C132.892 84.3871 134.002 84.1667 135.123 84.1672H138.255V92.7005H153.624L151.616 100.677Z" fill="#431D93"/>
<path d="M0 190.797L1.51035 190.324L3.01034 189.888L6.02414 189.045C8.03218 188.527 10.0402 188.008 12.0517 187.576C16.0678 186.643 20.0874 185.865 24.1035 185.126C32.1391 183.684 40.1713 182.606 48.2069 181.732C64.2213 180.063 80.3128 179.242 96.4139 179.274C112.515 179.268 128.606 180.098 144.621 181.763C152.656 182.644 160.689 183.719 168.724 185.157C172.74 185.893 176.76 186.667 180.776 187.593C182.784 188.039 184.792 188.54 186.804 189.055L189.817 189.892L191.324 190.313L192.831 190.787V192.142L168.728 192.487L144.624 192.608L96.4173 192.836L48.2104 192.612L24.1069 192.494L0.00345561 192.149L0 190.797Z" fill="#431D93"/>
<path d="M742.011 74.3512L739.609 71.9111H720.396L717.977 74.3512V162.256C717.977 184.234 734.787 194.001 751.598 194.001H797.597L799.999 191.561V174.467L797.597 172.027H751.619C746.818 172.027 742.014 169.583 742.014 162.259L742.011 74.3512Z" fill="#431D93"/>
<path d="M657.442 70.6885C640.632 70.6885 628.621 78.0156 621.419 87.7828H619.017C614.212 80.4557 607.006 70.6885 587.797 70.6885C586.224 70.6885 576.537 70.8786 576.537 70.8786L574.117 73.3186V90.4579L576.537 92.898H584.866C600.16 94.626 602.206 106.031 602.206 119.511V192.782L604.608 195.222H623.821L626.223 192.782V124.408C626.223 104.874 635.827 92.6664 652.642 92.6664C671.855 92.6664 674.257 104.877 674.257 119.528V192.799L676.676 195.239H695.862L698.264 192.799V119.528C698.281 92.6664 691.064 70.6885 657.442 70.6885Z" fill="#431D93"/>
<path d="M542.449 73.1318L540.047 75.5719V192.782L542.449 195.222H561.662L564.064 192.782V75.5719L561.662 73.1318H542.449Z" fill="#431D93"/>
<path d="M457.035 191.596L455.283 193.348H434.224L432.469 191.596V107.392L434.224 105.637H455.273L457.028 107.392V191.596H457.035Z" fill="#431D93"/>
<path d="M471.842 124.936L470.086 123.184V105.641L471.842 103.885H481.598C502.65 103.885 514.93 117.92 514.93 138.969V191.596L513.174 193.348H492.123L490.37 191.596V140.724C490.37 131.952 486.862 124.936 476.335 124.936H471.842Z" fill="#431D93"/>
<path d="M333.126 158.268C332.705 155.363 332.495 152.431 332.5 149.496C332.5 124.936 346.536 103.874 374.603 103.874C402.671 103.874 416.703 124.926 416.703 149.496V156.512L414.951 158.264H360.568M388.635 168.805L390.391 167.05H411.443L413.199 168.805M390.388 138.982C390.388 137.226 388.632 124.946 374.6 124.946C360.568 124.946 358.812 137.226 358.812 138.982L360.564 140.738H388.632L390.388 138.982Z" fill="#431D93"/>
<path d="M413.187 168.806C411.431 179.33 402.663 195.118 376.347 195.118C350.032 195.118 337.873 179.33 336.117 168.806L337.873 167.05H361.465L363.221 168.806C364.973 172.314 371.083 174.069 376.354 174.069C381.618 174.069 386.882 172.314 388.634 168.806" fill="#431D93"/>
<path d="M313.203 91.6044H230.752L229 89.8521V72.3085L230.752 70.5527H313.203L314.959 72.3085V89.8521" fill="#431D93"/>
<path d="M257.066 170.545V172.3H316.709L318.465 174.056V191.596L316.709 193.352H228.998L227.242 191.596V172.3L228.998 168.792L249.576 141.278L277.575 105.219L279.33 103.467H303.51L305.266 105.219L257.066 170.545Z" fill="#431D93"/>
</svg>
