<svg width="120" height="36" fill="none" xmlns="http://www.w3.org/2000/svg"><g clip-path="url(#a)"><path d="M20.91 12.838h-4.415l2.208-6.214 2.207 6.214zm6.522 6.675L20.346 2.055h-3.261L10 19.512h4.134l1.256-3.516h6.65l1.258 3.516h4.134zm5.518 0V2.055H29.1v17.457h3.85zm8.295-8.215c2.26.538 3.8 1.128 4.621 1.797.566.461.847 1.053.847 1.771 0 .719-.154 1.308-.461 1.72-.772 1.078-2.157 1.617-4.108 1.617-2.721 0-4.262-.925-4.595-2.773h-2.106c.616 2.953 2.85 4.417 6.7 4.417 1.72 0 3.159-.36 4.313-1.13 1.387-.899 2.105-2.234 2.105-3.98 0-1.437-.564-2.541-1.694-3.312-.795-.564-2.08-1.077-3.85-1.54-1.797-.461-2.953-.847-3.492-1.13-1.18-.59-1.77-1.41-1.745-2.49 0-.565.102-1.052.358-1.412.668-1.001 1.849-1.514 3.543-1.514 2.388 0 3.75.77 4.108 2.26h1.951c-.641-2.517-2.67-3.8-6.059-3.8-1.54 0-2.9.41-4.03 1.231-1.155.822-1.745 2.029-1.745 3.672 0 2.233 1.797 3.773 5.34 4.596zm21.308 3.362c0-1.232-.309-2.285-.899-3.107a4.524 4.524 0 0 0-2.438-1.668c.59-.257 1.103-.718 1.488-1.411.18-.309.309-.617.412-.95.101-.334.153-.797.153-1.387 0-.564-.153-1.155-.41-1.72-.77-1.567-2.44-2.362-4.98-2.362h-4.725v17.457h5.34c1.772 0 3.183-.385 4.262-1.207.538-.41.975-.95 1.31-1.616.306-.642.487-1.31.487-2.029zm-3.081-8.24c0 .95-.282 1.643-.847 2.106-.564.461-1.309.692-2.233.692h-3.44V3.775h2.926c2.388 0 3.594.9 3.594 2.645zm1.284 7.88c0 1.053-.36 1.9-1.079 2.543-.692.641-1.59.95-2.669.95h-4.057v-6.778h4.34c.898 0 1.694.308 2.387.924.312.288.572.626.77 1.002.205.41.308.846.308 1.36V14.3zm7.06-1.205 3.183-8.036 3.157 8.036h-6.34zm10.834 6.417L71 .85l-7.677 18.662h1.951l1.874-4.75h7.676l1.874 4.75h1.952z" fill="#000"/><path d="M17.829 30.109c0-.647-.132-1.241-.37-1.796a4.365 4.365 0 0 0-.975-1.425 4.7 4.7 0 0 0-1.466-.923 4.894 4.894 0 0 0-1.809-.344h-2.347v8.975h2.348c.634 0 1.24-.106 1.808-.33a4.727 4.727 0 0 0 1.466-.938c.417-.4.749-.88.975-1.412.247-.57.373-1.186.37-1.807zm-.897 0c0 1.028-.37 1.887-1.082 2.56-.713.672-1.583 1.002-2.613 1.002h-1.452v-7.126h1.452c1.03 0 1.9.343 2.612 1.003.713.687 1.083 1.544 1.083 2.56zm3.93 1.187 1.637-4.131 1.623 4.13h-3.26zm5.569 3.3L22.499 25l-3.947 9.595h1.005l.962-2.442h3.945l.965 2.441h1.002zm.395-8.142h2.177v8.115h.924v-8.115h2.176v-.859h-5.277v.859zm7.982 4.842 1.637-4.131 1.622 4.13h-3.26zm5.569 3.3L36.445 25l-3.947 9.595h1.004l.963-2.442h3.945l.964 2.441h1.003zm7.163-4.223c1.162.277 1.953.58 2.376.923.29.239.436.541.436.911 0 .369-.08.673-.24.884-.395.554-1.107.832-2.11.832-1.398 0-2.19-.476-2.363-1.426h-1.08c.316 1.517 1.463 2.27 3.443 2.27.884 0 1.624-.184 2.216-.58.713-.463 1.083-1.148 1.083-2.045 0-.74-.29-1.307-.87-1.703-.41-.291-1.07-.554-1.98-.793-.923-.237-1.518-.436-1.795-.58-.607-.304-.911-.726-.897-1.28 0-.29.053-.54.185-.725.343-.516.95-.78 1.82-.78 1.228 0 1.928.397 2.112 1.161h1.003c-.33-1.293-1.373-1.953-3.114-1.953-.792 0-1.492.212-2.073.635-.593.421-.897 1.04-.897 1.887 0 1.148.924 1.94 2.745 2.362zm12.997-.291a3.57 3.57 0 0 1-1.081 2.614 3.559 3.559 0 0 1-2.614 1.08c-1.016 0-1.887-.355-2.6-1.08-.725-.713-1.082-1.584-1.082-2.614 0-1.003.357-1.874 1.082-2.6a3.558 3.558 0 0 1 2.6-1.08c1.017 0 1.887.367 2.614 1.08.711.726 1.081 1.597 1.081 2.6zm.924 0a4.628 4.628 0 0 0-1.36-3.26 4.812 4.812 0 0 0-1.464-.975 4.532 4.532 0 0 0-3.59 0 4.835 4.835 0 0 0-1.464.975 4.65 4.65 0 0 0-.99 1.466 4.591 4.591 0 0 0-.356 1.794c0 .634.118 1.24.356 1.795.23.553.566 1.055.99 1.479.42.42.918.755 1.465.988a4.514 4.514 0 0 0 1.794.357 4.569 4.569 0 0 0 3.26-1.346c.424-.422.76-.925.99-1.478.243-.567.369-1.178.37-1.795zm2.506 3.59v-8.05h-.925v8.974h4.131v-.925h-3.206zm10.952-2.046v-6.005h-.924v6.138c0 .368-.066.672-.199.922-.383.74-1.121 1.109-2.217 1.109-.712 0-1.28-.157-1.702-.474-.489-.358-.726-.872-.726-1.557V25.62h-.924v6.005c0 .977.317 1.742.951 2.296.593.528 1.398.792 2.401.792.99 0 1.781-.264 2.388-.791.635-.555.952-1.32.952-2.297zm1.053-5.172h2.177v8.115h.924v-8.115h2.177v-.859h-5.278v.859zm7.455 8.142V25.62h-.924v8.975h.924zm9.883-4.514c0 1.03-.37 1.901-1.081 2.614a3.559 3.559 0 0 1-2.614 1.08c-1.015 0-1.887-.355-2.6-1.08-.725-.713-1.082-1.584-1.082-2.614 0-1.003.357-1.874 1.082-2.6a3.558 3.558 0 0 1 2.6-1.08c1.017 0 1.887.367 2.614 1.08.711.726 1.081 1.597 1.081 2.6zm.924 0a4.626 4.626 0 0 0-1.36-3.26 4.811 4.811 0 0 0-1.463-.975 4.532 4.532 0 0 0-3.59 0 4.837 4.837 0 0 0-1.466.975c-.42.421-.756.919-.99 1.466a4.59 4.59 0 0 0-.355 1.794c0 .634.119 1.24.356 1.795.23.553.566 1.055.99 1.479.42.42.918.755 1.465.988a4.516 4.516 0 0 0 1.794.357 4.566 4.566 0 0 0 3.26-1.346c.424-.422.76-.925.99-1.478.243-.567.369-1.178.37-1.795zm2.506-2.098 5.04 7.166V25.62h-.924v6.6l-5.04-7.167v9.542h.924v-6.612zm9.499 2.389c1.162.277 1.953.58 2.376.923.289.239.435.541.435.911 0 .369-.08.673-.238.884-.396.554-1.109.832-2.111.832-1.399 0-2.19-.476-2.363-1.426h-1.081c.317 1.517 1.464 2.27 3.444 2.27.884 0 1.624-.184 2.216-.58.713-.463 1.083-1.148 1.083-2.045 0-.74-.29-1.307-.871-1.703-.409-.291-1.069-.554-1.98-.793-.923-.237-1.517-.436-1.794-.58-.607-.304-.911-.726-.897-1.28 0-.29.053-.54.184-.725.343-.516.95-.78 1.821-.78 1.228 0 1.927.397 2.112 1.161h1.002c-.33-1.293-1.372-1.953-3.114-1.953-.791 0-1.491.212-2.072.635-.593.421-.897 1.04-.897 1.887 0 1.148.924 1.94 2.745 2.362z" fill="#575555"/><path d="M94.682 14.417h-1.977c-.616 1.129-1.463 2.053-2.541 2.721-1.078.693-2.286 1.028-3.568 1.028-1.926 0-3.57-.695-4.93-2.132-1.335-1.361-1.976-3.03-1.976-4.98 0-1.952.641-3.62 1.976-5.007a7.125 7.125 0 0 1 2.208-1.54c.822-.385 1.644-.59 2.465-.59.796 0 1.488.103 2.105.282 1.874.566 3.285 1.695 4.235 3.415h1.977a8.854 8.854 0 0 0-3.184-4.005c-1.488-1.027-3.105-1.54-4.876-1.54-2.44 0-4.494.899-6.188 2.67a8.915 8.915 0 0 0-1.848 2.875c-.461 1.079-.667 2.233-.667 3.44 0 2.465.821 4.543 2.515 6.29 1.694 1.797 3.748 2.67 6.188 2.67 1.771 0 3.388-.514 4.902-1.542 1.464-1.027 2.517-2.36 3.184-4.055zm4.49 5.34v-7.805h7.933v7.805h1.797V2.299h-1.797v7.856h-7.933V2.3h-1.796v17.458h1.796z" fill="#000"/></g><defs><clipPath id="a"><path fill="#fff" transform="translate(0 .85)" d="M0 0h120v34.3H0z"/></clipPath></defs></svg>