<svg width="120" height="36" fill="none" xmlns="http://www.w3.org/2000/svg"><g clip-path="url(#a)"><path fill="#fff" d="M0 .143h120v35.714H0z"/><g clip-path="url(#b)"><mask id="c" style="mask-type:luminance" maskUnits="userSpaceOnUse" x="10" y="0" width="100" height="36"><path d="M110 .143H10v35.714h100V.143z" fill="#fff"/></mask><g mask="url(#c)" fill="#FF5D5F"><path d="M69.872 22.004H58.305v3.084h11.567v-3.084zM69.872 7.77H58.305v3.084h11.567V7.77zM69.872 14.887H58.305v3.084h11.567v-3.084zM29.369 31.8a19.309 19.309 0 0 1-12.215 0c-2-.663-3.838-1.582-5.514-2.77L10 31.523a23.249 23.249 0 0 0 6.215 3.19 21.97 21.97 0 0 0 7.044 1.144 21.91 21.91 0 0 0 7.044-1.144 23.513 23.513 0 0 0 6.215-3.19l-1.64-2.493a20.704 20.704 0 0 1-5.51 2.77zM35.81 7.77h-3.108v17.318h3.107V7.77zM51.446 16.436a6.69 6.69 0 0 0-1.65-.903 45.378 45.378 0 0 0-1.738-.608 23.995 23.995 0 0 1-1.36-.437 4.546 4.546 0 0 1-1.045-.509 2.209 2.209 0 0 1-.676-.706c-.162-.277-.242-.61-.242-1.002 0-.428.098-.787.287-1.09.189-.303.431-.544.73-.734.288-.187.623-.33.982-.419.36-.089.721-.134 1.081-.134.604 0 1.207.143 1.811.429.604.285 1.063.644 1.395 1.063l.01-.044 2.017-2.199a6.721 6.721 0 0 0-2.377-1.393 8.324 8.324 0 0 0-2.703-.464 8.94 8.94 0 0 0-2.333.303 6.423 6.423 0 0 0-2.044.93c-.596.419-1.081.947-1.45 1.58-.368.645-.559 1.394-.559 2.28 0 .822.135 1.5.395 2.046.27.544.605 1.01 1.027 1.385.414.374.892.68 1.414.903.52.232 1.053.428 1.577.59.541.18 1.054.349 1.55.51.486.16.92.347 1.279.57.36.223.65.482.865.787.216.303.324.662.324 1.135s-.1.867-.288 1.188a2.484 2.484 0 0 1-.74.796 2.96 2.96 0 0 1-1.026.455c-.378.09-.748.134-1.108.134-.694 0-1.395-.17-2.108-.508-.712-.34-1.287-.805-1.712-1.394l-2.215 2.056c.694.823 1.586 1.43 2.667 1.85 1.08.42 2.188.627 3.323.627.856 0 1.667-.116 2.44-.339a6.06 6.06 0 0 0 2.018-1.028 4.921 4.921 0 0 0 1.377-1.726c.342-.689.515-1.5.515-2.43 0-.85-.153-1.554-.477-2.127a4.465 4.465 0 0 0-1.233-1.423zM19.558 11.442l5.377 13.646h3.469L20.809 7.77h-2.505l-7.592 17.318h3.467l5.379-13.646zM101.154 11.442l5.377 13.646h3.47L102.406 7.77h-2.502l-7.596 17.318h3.47l5.376-13.646zM82.2 7.77H75.809v17.318h3.108v-5.742h3.21l.728 1.782 1.632 3.957h3.55l-2.847-6.557a5.774 5.774 0 0 0 2.847-4.972C88.034 10.36 85.423 7.77 82.2 7.77zm0 8.493h-3.284v-5.41H82.2c1.503 0 2.725 1.213 2.725 2.705s-1.222 2.705-2.725 2.705z"/></g></g></g><defs><clipPath id="a"><path fill="#fff" transform="translate(0 .143)" d="M0 0h120v35.714H0z"/></clipPath><clipPath id="b"><path fill="#fff" transform="translate(10 .143)" d="M0 0h100v35.714H0z"/></clipPath></defs></svg>