<svg width="120" height="22" fill="none" xmlns="http://www.w3.org/2000/svg"><g clip-path="url(#a)"><g clip-path="url(#b)"><path d="M18.036.717a2.37 2.37 0 0 0-1.174.303 2.505 2.505 0 0 0-.895.852c-.066.107-5.177 8.24-5.437 8.705a3.94 3.94 0 0 0-.45 1.04 2.597 2.597 0 0 0-.007 1.255c.08.296.198.58.349.844.777 1.437 1.42 2.452 2.191 3.892.362.627.68 1.282 1.046 1.907a2.777 2.777 0 0 1 .43-1.915c.38-.703 9.863-15.87 10.04-16.118a1.89 1.89 0 0 1 .56-.519c.218-.132.46-.215.71-.246 0 0-6.272.003-7.363 0z" fill="#00A7DA"/><path d="m36.683 19.952.202-.171S27.499 2.512 27.138 1.874a1.545 1.545 0 0 0-.768-.697 1.489 1.489 0 0 0-1.484.206 2.325 2.325 0 0 0-.465.503c-.388.579-3.201 5.102-3.201 5.102l15.463 12.964zM28.8 14.679H16.492s-2.268 3.438-2.338 4.088a2.66 2.66 0 0 0 .272 1.59c.611 1.088 1.928 1.179 3.12.481 2.348-1.38 11.255-5.91 11.255-5.91v-.25z" fill="#00A7DA"/><path d="M68.01 8.016v5.963c.001.697.285 1.366.79 1.86.504.493 1.188.77 1.902.771h6.233v-1.222a.355.355 0 0 0-.107-.249.372.372 0 0 0-.255-.105h-5.87a.97.97 0 0 1-.678-.275.927.927 0 0 1-.281-.662v-2.315h5.633a.371.371 0 0 0 .254-.105.355.355 0 0 0 .108-.25v-1.221H70.3a1.28 1.28 0 0 0-.557.122V7.905c0-.249.1-.487.28-.663a.97.97 0 0 1 .678-.274h5.871a.371.371 0 0 0 .255-.105.355.355 0 0 0 .107-.249V5.392h-6.233c-.712 0-1.395.277-1.9.769a2.606 2.606 0 0 0-.792 1.855zM86.903 5.746c0 .275.057 6.018.165 8.125l-5.09-7.662a1.665 1.665 0 0 0-.563-.58 1.593 1.593 0 0 0-.76-.237h-1.592a.34.34 0 0 0-.24.105.368.368 0 0 0-.102.249V16.61h1.293a.34.34 0 0 0 .24-.105.366.366 0 0 0 .102-.25V6.968h.077a.307.307 0 0 1 .237.147l6.09 9.24a.495.495 0 0 0 .403.254h1.375V5.391h-1.293a.338.338 0 0 0-.24.105.365.365 0 0 0-.102.25zM52.557 5.392h-1.503v9.799c0 .376.145.737.4 1.003.256.266.603.416.965.416h5.775v-1.565h-5.637V5.392zM56.408 6.957h4.622v9.653h1.603V6.957h4.485V5.392h-10.71v1.565zM107.555 12.625c1.382-.469 2.169-1.738 2.169-3.518 0-2.327-1.305-3.715-3.489-3.715h-2.822c-.392 0-.781.082-1.143.243-.363.16-.692.396-.969.693-.278.296-.498.649-.648 1.037-.15.387-.227.803-.227 1.223v8.022h1.129a.315.315 0 0 0 .236-.104.374.374 0 0 0 .098-.252V12.82h4.038l2.198 3.591a.42.42 0 0 0 .146.145.387.387 0 0 0 .194.052H110l-2.445-3.984zm-5.667-1.368v-2.67a1.54 1.54 0 0 1 .058-.657c.067-.211.178-.403.325-.561.147-.158.328-.277.525-.348a1.27 1.27 0 0 1 .615-.062h2.822c1.325 0 2.026.743 2.026 2.152 0 1.41-.701 2.152-2.026 2.152l-4.345-.006zM47.768 13.106a.73.73 0 0 0-.26-.318.684.684 0 0 0-.385-.12h-4.088l2.406-5.461-.56-1.722a.137.137 0 0 0-.044-.065.125.125 0 0 0-.144-.01.133.133 0 0 0-.052.057l-.344.715-4.644 10.428h1.417c.068 0 .135-.02.192-.058a.367.367 0 0 0 .131-.158l.968-2.196h5.872l-.465-1.092zM93.862 5.456a.11.11 0 0 0-.207.015L93.08 7.23l2.406 5.449h-4.088a.688.688 0 0 0-.385.119.728.728 0 0 0-.26.317l-.464 1.09h5.872l.967 2.19c.03.065.075.12.131.158a.347.347 0 0 0 .192.058h1.418L94.226 6.206l-.364-.75z" fill="#000"/></g></g><defs><clipPath id="a"><path fill="#fff" transform="translate(0 .717)" d="M0 0h120v20.567H0z"/></clipPath><clipPath id="b"><path fill="#fff" transform="translate(10 .717)" d="M0 0h100v20.567H0z"/></clipPath></defs></svg>