<svg width="120" height="36" fill="none" xmlns="http://www.w3.org/2000/svg"><g clip-path="url(#a)"><path fill="#fff" d="M0 .2h120v35.6H0z"/><path d="M92.07 15.289c-2.084 0-4.222.59-4.222 5.02 0 1.745.24 2.819.829 3.544.614.805 1.63 1.181 3.18 1.181 1.122 0 2.272-.08 3.394-.241l.16-.027V23.37h-3.1c-1.817 0-2.432-.484-2.432-1.933V20.9h4.891c.748 0 1.23-.51 1.23-1.289v-.564c-.027-2.497-1.364-3.758-3.93-3.758zm1.952 4.08h-4.17v-.375c0-.913.321-2.014 1.818-2.014h.748c1.336 0 1.604.805 1.604 2.014v.375zm-18.147-4.08h-.454c-2.807 0-4.063 1.53-4.063 4.993 0 2.846.695 4.752 4.063 4.752h.454c2.753 0 4.035-1.557 4.035-4.86 0-3.436-1.202-4.885-4.035-4.885zm2.004 5.638c0 1.745-.56 2.47-1.977 2.47h-.508c-1.684 0-1.978-.752-1.978-2.9v-.644c0-2.282.454-2.9 2.085-2.9h.294c1.523 0 2.084.43 2.084 2.9v1.073zm-20.285-5.638c-2.084 0-4.222.59-4.222 5.02 0 1.745.24 2.819.801 3.544.615.805 1.63 1.181 3.18 1.181 1.123 0 2.273-.08 3.395-.241l.16-.027V23.37h-3.1c-1.817 0-2.432-.484-2.432-1.933V20.9h4.891c.748 0 1.23-.51 1.23-1.289v-.564c.026-2.497-1.31-3.758-3.903-3.758zm1.978 4.08h-4.17v-.375c0-.913.322-2.014 1.818-2.014h.749c1.336 0 1.603.805 1.603 2.014v.375zm-9.595-6.926v3.06h-2.672c-1.817.027-3.608.51-3.608 4.806 0 4.376 1.684 4.698 4.062 4.698 1.363 0 2.7-.08 4.036-.268l.16-.027v-12.27h-1.977zm0 10.873h-2.164c-1.63 0-2.058-.537-2.058-2.524v-1.1c0-1.826.588-2.444 2.218-2.444h2.005v6.068zm51.448-8.027c-1.016 0-2.058.08-3.074.214l-.16.027v1.477h3.367c1.23 0 1.684.43 1.684 1.61v.457a20.885 20.885 0 0 0-2.886-.215c-1.524 0-3.555.35-3.555 3.249 0 2.711 1.657 2.926 3.822 2.926 1.443 0 2.886-.134 4.33-.349l.16-.027.027-6.094c0-2.873-1.764-3.275-3.715-3.275zm1.817 8.027h-3.047c-.962 0-1.336-.322-1.336-1.154v-.35c0-.859.455-1.235 1.443-1.235h2.94v2.739zm-36.855-.886-2.86-6.9h-2.03l3.848 9.316h1.95l3.77-9.316h-1.978l-2.7 6.9zm17.532-.403v-4.966h2.833v-1.558h-2.806v-2.926h-1.87v2.926h-1.497v1.584h1.39v4.994c0 1.477.347 3.007 2.832 3.007.775 0 1.55-.108 2.299-.296l.133-.026V23.37h-1.95c-1.07-.027-1.364-.323-1.364-1.343zm32.472-6.765c-1.069.027-2.138.134-3.18.376-.668-.35-1.443-.376-2.218-.376-1.31.027-2.619.16-3.902.376v9.181h1.977v-7.785h1.818c1.336 0 1.737.43 1.737 1.933v5.88h1.978V18.43c0-.457-.054-.94-.214-1.37h1.684c1.496 0 1.977.457 1.977 1.934v5.852h1.951V18.51c.054-3.248-2.405-3.248-3.608-3.248z" fill="#3C3C3A"/><path d="M17.746.2C7.964.173.026 8.147 0 17.973-.027 27.8 7.91 35.773 17.693 35.8c9.781.027 17.719-7.947 17.745-17.773V18c0-9.826-7.91-17.773-17.692-17.8zm11.786 16.458h-6.788v12.43h-8.045c-4.356 0-8.285-2.658-8.285-8.323 0-4.215 2.192-8.322 8.285-8.322h1.871a23.677 23.677 0 0 1 1.042 4.268h-2.806c-2.512 0-3.928 1.37-3.928 4.081 0 2.55 1.336 4.08 3.928 4.08h3.582V6.134h4.356v6.336h6.788v4.189z" fill="#F8485E"/></g><defs><clipPath id="a"><path fill="#fff" transform="translate(0 .2)" d="M0 0h120v35.6H0z"/></clipPath></defs></svg>