<svg width="120" height="28" fill="none" xmlns="http://www.w3.org/2000/svg"><g clip-path="url(#a)"><path d="M16.94 22.344c.603-1.42 2.198-2.065 3.577-1.505h.044-.044c-2.715-1.119-4.612-3.785-4.612-6.84 0-3.096 1.897-5.72 4.57-6.838a2.697 2.697 0 0 1-3.578-1.505 2.687 2.687 0 0 1 1.508-3.57C13.75 4.02 10.431 8.624 10.431 14c0 5.333 3.276 9.892 7.888 11.87-1.336-.601-1.94-2.15-1.38-3.526z" fill="#ABE1D7"/><path d="M23.362 26.903c-1.724 0-3.362-.344-4.957-.99-1.422-.601-2.069-2.193-1.508-3.569.603-1.42 2.198-2.065 3.577-1.505.905.387 1.854.559 2.845.559 4.095 0 7.414-3.312 7.414-7.398s-3.276-7.398-7.37-7.398c-.992 0-1.94.172-2.846.56a2.697 2.697 0 0 1-3.577-1.506 2.687 2.687 0 0 1 1.508-3.57 12.69 12.69 0 0 1 4.914-.99c7.112 0 12.931 5.807 12.931 12.904 0 7.097-5.776 12.903-12.93 12.903z" fill="#45C2B1"/><path d="M32.199 24.322c.69 0 1.25.56 1.25 1.248s-.56 1.204-1.25 1.204-1.207-.56-1.207-1.204c0-.689.517-1.248 1.207-1.248zm0 2.28c.56 0 1.034-.473 1.034-1.032 0-.56-.474-1.033-1.034-1.033s-1.035.473-1.035 1.033c0 .559.474 1.032 1.035 1.032zm-.431-1.592c0-.043.043-.086.086-.086h.474c.215 0 .43.13.43.387 0 .259-.172.345-.258.388.087.129.13.258.216.387.043.043 0 .086-.043.086h-.13c-.043 0-.043-.043-.043-.043l-.172-.43h-.345v.43c0 .043-.043.086-.086.086h-.086c-.043 0-.087-.043-.087-.086V25.01h.044zm.56.517c.13 0 .215-.087.215-.216 0-.128-.086-.215-.215-.215h-.345v.388c0 .043.345.043.345.043z" fill="#45C2B1"/><path d="M45.043 12.065c1.423 0 2.5-1.162 2.5-2.624 0-1.462-1.034-2.58-2.5-2.58h-1.207v5.204h1.207zm-3.233-6.84c0-.128.087-.257.216-.257h3.103c2.457 0 4.483 2.021 4.483 4.473 0 2.494-2.026 4.516-4.483 4.516h-3.103c-.13 0-.216-.129-.216-.258V5.226zM51.681 5.226c0-.13.13-.258.259-.258h1.552c.129 0 .258.129.258.258v8.516c0 .129-.13.258-.258.258H51.94c-.13 0-.259-.129-.259-.258V5.226zM60.259 6.903H63.449V5.27c0-.13-.087-.258-.216-.258H60.13c-2.457 0-4.483 2.021-4.483 4.473 0 2.495 2.026 4.516 4.483 4.516h3.103c.13 0 .216-.129.216-.258V9.87c0-.13-.087-.258-.216-.258h-1.508c-.13 0-.26.086-.26.258v2.194H60.26c-1.422 0-2.5-1.162-2.5-2.624 0-1.42 1.035-2.538 2.5-2.538zM65.862 5.226c0-.13.13-.258.259-.258h1.552c.129 0 .258.129.258.258v8.516c0 .129-.129.258-.258.258H66.12c-.13 0-.259-.129-.259-.258V5.226zM71.767 6.86h-1.81c-.13 0-.259-.129-.259-.258v-1.42c0-.128.087-.257.259-.257h5.646c.13 0 .259.129.259.258v1.42c0 .128-.086.257-.259.257h-1.81V13.7c0 .129-.13.258-.259.258h-1.551c-.13 0-.259-.129-.259-.258l.043-6.839zM81.25 10.86l-.991-2.107-.949 2.107-.776 1.764-.474 1.032c-.043.172-.215.301-.474.301h-1.422c-.173 0-.302-.172-.216-.344l4.009-8.645a.237.237 0 0 1 .216-.13h.129c.086 0 .172.044.215.13l4.009 8.645c.086.172-.043.344-.216.344h-1.422c-.216 0-.345-.086-.431-.3l-.474-1.033-.733-1.764zM85.992 5.226c0-.13.086-.258.258-.258h1.509c.13 0 .259.129.259.258v6.839h3.017c.13 0 .258.129.258.258v1.419c0 .129-.086.258-.258.258H86.25c-.129 0-.258-.129-.258-.258V5.226zM91.768 5.183h-.302s-.043 0-.043-.043v-.172s0-.043.043-.043h.819c.043 0 .043 0 .043.043v.172s0 .043-.043.043h-.302v1.075s0 .043-.043.043h-.172s-.043 0-.043-.043l.043-1.075zM92.673 4.968l.043-.043h.043l.431.903.431-.903h.086c.043 0 .043 0 .043.043l.216 1.247c0 .043 0 .043-.043.043h-.173s-.043 0-.043-.043l-.129-.731-.345.731s0 .043-.043.043h-.043s-.043 0-.043-.043l-.345-.731-.13.731s0 .043-.042.043h-.173c-.043 0-.043 0-.043-.043l.302-1.247z" fill="#415364"/><path d="M53.75 21.054c.948 0 1.638-.73 1.638-1.677 0-.946-.69-1.677-1.638-1.677h-.776v3.397h.776v-.043zm-2.069-4.43c0-.086.086-.172.13-.172h2.025c1.595 0 2.888 1.29 2.888 2.925 0 1.634-1.293 2.925-2.888 2.925H51.81c-.086 0-.129-.086-.129-.172v-5.506zM58.19 16.624c0-.086.086-.172.172-.172h.992c.086 0 .172.086.172.172v5.506c0 .086-.086.172-.172.172h-.992c-.086 0-.172-.086-.172-.172v-5.506zM64.052 20.28l-.647-1.376-.603 1.376-.517 1.118-.302.689c-.043.086-.13.215-.302.215h-.905c-.13 0-.173-.13-.13-.215l2.587-5.635c.043-.043.086-.086.13-.086h.085c.043 0 .13.043.13.086l2.586 5.635c.043.129 0 .215-.13.215h-.905c-.129 0-.215-.043-.301-.215l-.302-.645-.474-1.162zM69.698 17.657h2.156V16.58c0-.086-.087-.172-.173-.172h-2.069a2.977 2.977 0 0 0-2.974 2.968c0 1.634 1.336 3.01 2.974 3.01h2.07c.085 0 .172-.085.172-.171V19.592c0-.086-.087-.172-.173-.172h-.991c-.086 0-.172.086-.172.172v1.462h-.82c-.948 0-1.637-.774-1.637-1.72 0-.903.69-1.677 1.637-1.677zM73.362 16.538c0-.086.087-.172.173-.172h.215l3.32 3.183v-2.968c0-.086.085-.172.172-.172h.991c.086 0 .172.086.172.172v5.635c0 .086-.086.172-.172.172h-.13c-.042 0-.085-.043-.085-.043l-3.276-3.312v3.097c0 .086-.087.172-.173.172h-.991c-.086 0-.173-.086-.173-.172l-.043-5.592zM82.845 21.054c.905 0 1.638-.73 1.638-1.677 0-.903-.733-1.677-1.638-1.677-.905 0-1.638.774-1.638 1.677-.043.903.733 1.677 1.638 1.677zm0-4.688c1.638 0 2.974 1.334 2.974 3.011s-1.336 3.01-2.974 3.01c-1.638 0-2.974-1.333-2.974-3.01 0-1.634 1.293-3.01 2.974-3.01zM86.94 21.527l.388-.688c.086-.129.215-.086.301-.043.043 0 .647.473 1.164.473.345 0 .56-.215.56-.516 0-.344-.301-.602-.862-.86-.733-.301-1.594-.86-1.594-1.85 0-.817.646-1.677 1.896-1.677.862 0 1.509.43 1.767.645.087.043.087.215.043.258l-.43.646c-.044.086-.216.172-.302.129-.087-.043-.69-.517-1.164-.517-.302 0-.517.216-.517.43 0 .302.258.56.905.818.646.258 1.68.774 1.68 1.892 0 .86-.732 1.72-1.939 1.72-1.078 0-1.68-.43-1.853-.644-.087-.086-.13-.13-.043-.215zM92.974 17.7h-1.163c-.087 0-.173-.087-.173-.173v-.903c0-.086.086-.172.173-.172h3.663c.087 0 .173.086.173.172v.903c0 .086-.086.172-.173.172h-1.163v4.474c0 .086-.087.172-.173.172h-.991c-.086 0-.173-.086-.173-.172V17.7zM96.853 16.624c0-.086.087-.172.173-.172h.991c.087 0 .173.086.173.172v5.506c0 .086-.087.172-.173.172h-.991c-.086 0-.172-.086-.172-.172v-5.506zM102.543 16.366c.819 0 1.422.258 2.026.774.086.086.086.172 0 .215l-.647.689c-.043.043-.129.043-.215 0a1.82 1.82 0 0 0-1.121-.43c-.948 0-1.638.774-1.638 1.72s.69 1.677 1.638 1.677c.388 0 .819-.129 1.121-.387.043-.043.172-.043.215 0l.647.688c.043.043.043.172 0 .215a2.838 2.838 0 0 1-2.026.818c-1.638 0-2.974-1.334-2.974-3.011 0-1.591 1.336-2.968 2.974-2.968zM105.69 21.527l.388-.688c.086-.129.215-.086.301-.043.043 0 .647.473 1.164.473.345 0 .56-.215.56-.516 0-.344-.301-.602-.862-.86-.732-.301-1.595-.86-1.595-1.85 0-.817.647-1.677 1.897-1.677.862 0 1.509.43 1.767.645.086.043.086.215.043.258l-.431.646c-.043.086-.215.172-.301.129-.087-.043-.69-.517-1.164-.517-.302 0-.517.216-.517.43 0 .302.258.56.905.818.646.258 1.681.774 1.681 1.892 0 .86-.733 1.72-1.94 1.72-1.077 0-1.681-.43-1.853-.644-.087-.086-.087-.13-.043-.215z" fill="#45C2B1"/></g><defs><clipPath id="a"><path fill="#fff" transform="translate(0 .667)" d="M0 0h120v26.667H0z"/></clipPath></defs></svg>