<svg width="120" height="46" fill="none" xmlns="http://www.w3.org/2000/svg"><g clip-path="url(#a)"><g clip-path="url(#b)"><mask id="c" style="mask-type:luminance" maskUnits="userSpaceOnUse" x="10" y="0" width="100" height="46"><path d="M110 .864H10v44.271h100V.865z" fill="#fff"/></mask><g mask="url(#c)"><path d="M44.692 8.207c-3.465-4.053-8.607-6.622-14.341-6.622-10.438 0-18.9 8.509-18.9 19.003 0 10.495 8.462 19.003 18.9 19.003 10.438 0 18.9-8.508 18.9-19.003 0-3.768-1.094-7.284-2.976-10.238l.365-.222a19.95 19.95 0 0 1 3.097 10.717c0 11.036-8.897 19.98-19.872 19.98C18.889 40.826 10 31.878 10 20.846S18.896.865 29.872.865c6.027 0 11.43 2.7 15.075 6.961l-.255.381z" fill="#5E3BBC"/><path d="m17.427 43.949 21.106-30.17.628.391-19.81 30.964-1.924-1.185zM44.813 9.078l-27.965 4.5-.23-.579 27.795-6.233.4 2.312z" fill="#FA95B0"/><path d="M44.01 28.174 16.416 13.75l-.352.586 27.658 15.948 2.069-2.34-6.093-14.014-.538.24 4.503 14.294" fill="#FA95B0"/><path d="M44.944 10.051a2.22 2.22 0 0 0 2.213-2.226A2.22 2.22 0 0 0 44.944 5.6a2.22 2.22 0 0 0-2.214 2.225 2.22 2.22 0 0 0 2.214 2.226zM16.465 14.986c.77 0 1.393-.627 1.393-1.4 0-.774-.624-1.401-1.393-1.401-.77 0-1.393.627-1.393 1.4 0 .774.623 1.4 1.393 1.4z" fill="#67DAF4"/><path d="M39.161 15.572c.77 0 1.393-.627 1.393-1.4 0-.774-.623-1.402-1.393-1.402s-1.393.628-1.393 1.401c0 .774.624 1.4 1.393 1.4z" fill="#7DCEF1"/><path d="M44.699 31.354a2.22 2.22 0 0 0 2.213-2.226 2.22 2.22 0 0 0-2.213-2.226 2.22 2.22 0 0 0-2.214 2.226 2.22 2.22 0 0 0 2.214 2.226z" fill="#67DAF4"/><path d="M62.722 10.988c-3.558 0-6.14 2.746-6.14 6.529 0 3.782 2.513 6.459 6.399 6.459 3.483 0 4.955-2.216 5.445-3.218l-2.249-1.369c-.524.818-1.428 1.876-3.196 1.876-1.77 0-3.014-1.027-3.183-2.746l-.007-.056h9.003c.042-.52.042-.957.042-1.251 0-3.78-2.4-6.224-6.117-6.224h.003zm-2.858 5.187.007-.059c.175-1.553 1.286-2.555 2.83-2.555 1.652 0 2.818 1.002 2.973 2.555l.007.056h-5.814l-.003.003zM73.397 11.2h-3.051v12.56h3.051V11.2zM81.273 16.997l.024-.031 4.48-5.766H82.21l-3.82 5.076V8.447h-3.052v15.318h3.051V18.06l3.87 5.704h3.689l-4.676-6.768z" fill="#231F20"/><path d="M91.887 10.988c-1.817 0-3.476.662-4.669 1.866-1.193 1.203-1.848 2.856-1.848 4.666 0 3.804 2.679 6.46 6.517 6.46 3.837 0 6.541-2.736 6.541-6.508 0-3.773-2.69-6.484-6.541-6.484zm.024 10.228c-2.055 0-3.49-1.529-3.49-3.72 0-2.191 1.424-3.744 3.466-3.744 2.041 0 3.49 1.574 3.49 3.744s-1.425 3.72-3.466 3.72zM105.552 11.058c-1.586 0-2.362.748-2.621 1.07l-.092.115v-1.04h-3.052v12.561h3.052V15.84c0-1.293.672-2.067 1.792-2.067 1.121 0 1.749.732 1.749 2.067v7.925h3.051v-8.307c0-2.007-.672-4.4-3.879-4.4zM58.83 27.845h.844v1.172h-.844V31.6c0 .416.134.593.527.593h.32v1.182c-.03 0-.279.073-.75.073-1.042 0-1.477-.53-1.477-1.453v-2.978h-.517v-1.172h.517v-.87h1.383v.87h-.003zM63.195 29.897c0-.54-.238-.88-.742-.88-.503 0-.762.353-.762.88v3.495H60.31V25.81h1.382v2.447c.145-.166.487-.478 1.166-.478 1.29 0 1.724.88 1.724 1.952v3.661h-1.383v-3.495h-.003zM66.609 31.072c.072.735.59 1.183 1.372 1.183.7 0 1.104-.375 1.393-.829l1.02.62c-.33.694-1.072 1.443-2.413 1.443-1.672 0-2.828-1.089-2.828-2.853 0-1.661 1.114-2.885 2.714-2.885 1.6 0 2.703 1.089 2.703 2.75 0 .135 0 .332-.02.571h-3.941zm.03-1.047h2.497c-.062-.624-.527-1.099-1.279-1.099-.7 0-1.145.468-1.217 1.1zM73.594 29.277h-.351c-.538 0-.721.26-.721.735v3.38h-1.383v-5.55h1.383v.447c.197-.28.507-.468 1.072-.468v1.456zM75.67 29.756c.497 0 .834.135.98.229v-.281c0-.479-.208-.818-.721-.818-.514 0-.67.333-.67.641h-1.29c.032-1.047.663-1.744 1.963-1.744 1.59 0 2.083.88 2.083 2.115v3.495h-1.156v-.354c-.155.167-.527.427-1.165.427-1.103 0-1.92-.735-1.92-1.89 0-1.037.751-1.827 1.9-1.827l-.004.007zm.207 2.614a.77.77 0 0 0 .793-.797c0-.465-.341-.787-.803-.787a.77.77 0 0 0-.794.787.78.78 0 0 0 .804.797zM80.177 35.209h-1.383v-7.364h1.31v.53c.28-.28.814-.624 1.694-.624 1.672 0 2.765 1.182 2.765 2.853 0 1.672-1.072 2.885-2.827 2.885-.731 0-1.28-.302-1.559-.54v2.26zm1.486-2.958c.938 0 1.517-.686 1.517-1.63 0-.942-.61-1.64-1.527-1.64-.917 0-1.517.694-1.517 1.64 0 .947.61 1.63 1.527 1.63zM86.41 31.072c.073.735.59 1.183 1.373 1.183.704 0 1.104-.375 1.393-.829l1.021.62c-.331.694-1.072 1.443-2.414 1.443-1.672 0-2.827-1.089-2.827-2.853 0-1.661 1.114-2.885 2.714-2.885 1.6 0 2.703 1.089 2.703 2.75 0 .135 0 .332-.02.571H86.41zm.032-1.047h2.496c-.062-.624-.527-1.099-1.279-1.099-.7 0-1.145.468-1.217 1.1zM92.303 31.33c0 .54.218.88.71.88.494 0 .763-.364.763-.891v-3.474h1.383v5.55h-1.373v-.416c-.145.188-.507.479-1.155.479-1.227 0-1.713-.829-1.713-1.962v-3.651H92.3v3.484h.003zM97.586 27.845h.845v1.172h-.845V31.6c0 .416.135.593.528.593h.32v1.182c-.03 0-.278.073-.75.073-1.043 0-1.477-.53-1.477-1.453v-2.978h-.517v-1.172h.517v-.87h1.383v.87h-.004zM98.928 26.673a.83.83 0 0 1 .824-.839c.452 0 .825.374.825.839a.81.81 0 0 1-.825.818.815.815 0 0 1-.824-.818zm1.517 6.723h-1.382v-5.551h1.382v5.55zM105.066 31.777l.762.932c-.331.354-.98.777-1.931.777-1.745 0-2.858-1.245-2.858-2.853 0-1.61 1.196-2.885 2.847-2.885 1 0 1.611.406 1.942.745l-.793.964a1.59 1.59 0 0 0-1.134-.457c-.907 0-1.476.693-1.476 1.619 0 .995.689 1.608 1.486 1.608.558 0 .907-.25 1.155-.457v.007zM107.924 29.838c.249.073.477.115.752.198.887.27 1.321.704 1.321 1.713 0 1.13-.928 1.723-2.011 1.723-1.527 0-2.003-.902-1.972-1.869h1.321c0 .395.134.746.669.746.362 0 .651-.177.651-.5 0-.322-.165-.468-.548-.572-.3-.083-.538-.135-.834-.25-.762-.28-1.145-.797-1.145-1.64 0-.932.783-1.618 1.89-1.618 1.165 0 1.858.593 1.868 1.754h-1.268c-.011-.427-.208-.673-.632-.673-.33 0-.548.188-.548.468 0 .281.155.427.486.52z" fill="#231F20"/><path d="M71.87 10c.96 0 1.738-.783 1.738-1.748s-.778-1.747-1.738-1.747-1.738.782-1.738 1.747c0 .965.778 1.748 1.738 1.748z" fill="#67DAF4"/></g></g></g><defs><clipPath id="a"><path fill="#fff" transform="translate(0 .864)" d="M0 0h120v44.271H0z"/></clipPath><clipPath id="b"><path fill="#fff" transform="translate(10 .864)" d="M0 0h100v44.271H0z"/></clipPath></defs></svg>