<svg width="120" height="26" fill="none" xmlns="http://www.w3.org/2000/svg"><g clip-path="url(#a)"><g clip-path="url(#b)"><path d="M25.235 6.487a4.5 4.5 0 0 1 1.884 1.874 6.16 6.16 0 0 1 .68 3v7.611h-2.648v-7.215c0-1.155-.29-2.041-.867-2.657a3.089 3.089 0 0 0-2.366-.925 3.122 3.122 0 0 0-2.379.925c-.586.616-.879 1.502-.879 2.658v7.214h-2.672V6.068h2.672v1.474a4.423 4.423 0 0 1 1.676-1.24 5.337 5.337 0 0 1 2.168-.446c.948-.016 1.885.201 2.73.631zM35.754 8.244h-2.386v10.729h-2.695V8.244h-1.528V6.067h1.528v-.913c0-1.484.394-2.565 1.182-3.244.787-.679 2.025-1.018 3.713-1.018v2.225c-.81 0-1.38.153-1.709.458-.33.306-.493.833-.492 1.58v.915h2.39l-.003 2.174zM39.305 18.344a5.968 5.968 0 0 1-2.32-2.342 7.057 7.057 0 0 1-.843-3.501 6.924 6.924 0 0 1 .866-3.49 5.999 5.999 0 0 1 2.366-2.343 7.26 7.26 0 0 1 6.702 0 5.986 5.986 0 0 1 2.368 2.343c.591 1.066.89 2.27.866 3.49a6.742 6.742 0 0 1-.891 3.488 6.161 6.161 0 0 1-2.425 2.355 6.99 6.99 0 0 1-3.385.832 6.6 6.6 0 0 1-3.311-.832h.007zm5.237-1.97a3.742 3.742 0 0 0 1.465-1.477 4.744 4.744 0 0 0 .563-2.389 4.832 4.832 0 0 0-.54-2.377 3.63 3.63 0 0 0-1.43-1.464 3.91 3.91 0 0 0-1.922-.491 3.824 3.824 0 0 0-1.908.49 3.51 3.51 0 0 0-1.396 1.465 5.015 5.015 0 0 0-.51 2.377c0 1.39.355 2.464 1.065 3.221a3.533 3.533 0 0 0 2.685 1.136 3.998 3.998 0 0 0 1.933-.492h-.005zM55.689 6.465a5.636 5.636 0 0 1 2.65-.609 5.915 5.915 0 0 1 3.078.83 5.828 5.828 0 0 1 2.19 2.332 7.202 7.202 0 0 1 .798 3.442 7.408 7.408 0 0 1-.797 3.478 5.94 5.94 0 0 1-2.19 2.39 5.776 5.776 0 0 1-3.08.856 5.627 5.627 0 0 1-2.626-.598 5.86 5.86 0 0 1-1.875-1.487v8.01h-2.672V6.067h2.672v1.897a5.445 5.445 0 0 1 1.852-1.5zm5.448 3.689a3.786 3.786 0 0 0-1.451-1.477 3.942 3.942 0 0 0-1.934-.51 3.815 3.815 0 0 0-3.365 2.015 4.67 4.67 0 0 0-.55 2.32c-.019.81.17 1.612.55 2.329a3.82 3.82 0 0 0 2.33 1.883 3.805 3.805 0 0 0 2.969-.384 3.88 3.88 0 0 0 1.451-1.527 4.8 4.8 0 0 0 .55-2.343c.02-.803-.169-1.599-.55-2.306zM68.987 1.638h-2.672V18.97h2.672V1.638zM71.721 9.038a5.895 5.895 0 0 1 2.196-2.333 5.875 5.875 0 0 1 3.09-.836 5.657 5.657 0 0 1 2.659.595 5.436 5.436 0 0 1 1.816 1.49V6.08h2.695v12.905H81.48v-1.922a5.268 5.268 0 0 1-1.851 1.528c-1.4.697-3.017.81-4.5.314a5.912 5.912 0 0 1-3.409-2.96 7.358 7.358 0 0 1-.808-3.478 7.146 7.146 0 0 1 .808-3.441v.012zm9.21 1.159a3.863 3.863 0 0 0-1.441-1.5 3.777 3.777 0 0 0-1.923-.509c-.674 0-1.336.175-1.92.51a3.824 3.824 0 0 0-1.443 1.476 4.615 4.615 0 0 0-.55 2.306 4.804 4.804 0 0 0 .55 2.342 3.887 3.887 0 0 0 1.455 1.528 3.723 3.723 0 0 0 1.908.527 3.749 3.749 0 0 0 3.365-2.019c.379-.716.568-1.518.55-2.33a4.668 4.668 0 0 0-.55-2.319v-.012zM89.81 16.793h5.859v2.177h-8.954v-2.177l5.882-8.55h-5.882V6.065h8.954v2.18l-5.859 8.549zM97.491 9.02a5.895 5.895 0 0 1 2.198-2.322c.933-.556 2-.843 3.085-.83a5.656 5.656 0 0 1 2.661.596 5.434 5.434 0 0 1 1.817 1.49V6.08h2.695v12.905h-2.705v-1.922a5.295 5.295 0 0 1-1.852 1.528c-1.4.697-3.017.81-4.5.314a5.913 5.913 0 0 1-3.41-2.96 7.33 7.33 0 0 1-.81-3.478 7.127 7.127 0 0 1 .81-3.441l.011-.006zm9.208 1.177a3.862 3.862 0 0 0-1.439-1.5 3.778 3.778 0 0 0-1.923-.509 3.799 3.799 0 0 0-3.362 1.986 4.61 4.61 0 0 0-.55 2.306 4.8 4.8 0 0 0 .55 2.343 3.883 3.883 0 0 0 1.451 1.527 3.771 3.771 0 0 0 5.273-1.51c.38-.716.571-1.518.553-2.33a4.672 4.672 0 0 0-.553-2.318v.005zM13.135 6.065h-2.672v12.906h2.672V6.065z" fill="#2E2E2B"/><path d="M13.553 2.646a1.757 1.757 0 0 1-1.404 1.725 1.746 1.746 0 0 1-1.961-1.045 1.758 1.758 0 0 1 .64-2.132 1.746 1.746 0 0 1 2.59.782c.089.212.134.44.135.67z" fill="#00BF78"/></g></g><defs><clipPath id="a"><path fill="#fff" transform="translate(0 .892)" d="M0 0h120v24.216H0z"/></clipPath><clipPath id="b"><path fill="#fff" transform="translate(10 .892)" d="M0 0h100v24.216H0z"/></clipPath></defs></svg>