<svg width="120" height="38" fill="none" xmlns="http://www.w3.org/2000/svg"><g clip-path="url(#a)"><path d="M96.026 35.965V20.253h3.425v12.569h7.829v3.072H96.026v.07zM93.02 17.18h-3.284v-6.285h-6.43v-3.28h6.43V1.401h3.284v6.215h6.43v3.28h-6.43v6.285zm0 3.072v3.073h-8.526v3.212h7.618v3.071h-7.618v3.282h8.597v3.073H81.07V20.323h11.95v-.07zM74.638 25.7l-4.263 6.703-4.194-6.634v10.196h-3.355V20.253h3.634l3.983 6.633 3.917-6.633h3.705v15.783H74.64L74.638 25.7zM67.02 7.197v9.984h-3.424V1.471h3.215l7.759 9.636V1.471h3.424v15.711H75.06L67.02 7.197zm-17.405 0v9.984h-3.424V1.471h3.215l7.758 9.636V1.471h3.425v15.711h-2.935l-8.039-9.985zm-9.925 6.494h-6.85l-1.397 3.491h-3.496l6.781-15.85h3.215l6.78 15.85h-3.565L39.69 13.69zM36.266 5.59l-2.237 5.028h4.403L36.266 5.59zm-5.032 24.02c0 1.746 1.118 3.422 3.215 3.422h.28c2.167 0 3.215-1.676 3.215-3.423v-9.286h3.425v9.148c0 2.235-1.048 6.773-6.361 6.773h-.91c-4.472 0-6.43-3.282-6.43-6.773v-9.148h3.496v9.287h.07zM23.126 6.916l-4.473 6.703-4.474-6.634v10.198h-3.355V1.472h3.704l4.194 6.633 4.055-6.633h3.704v15.782h-3.425V6.918l.07-.001zm-8.878 19.62h6.99v-6.284h3.425v15.783h-3.425v-6.357h-6.99v6.357h-3.425V20.253h3.425v6.285zm37.955.349 3.844-6.633h3.704v15.783h-3.425V25.7l-4.264 6.704-4.194-6.634v10.196h-3.424V20.254h3.704l4.055 6.632z" fill="#008243"/></g><defs><clipPath id="a"><path fill="#fff" transform="translate(0 .58)" d="M0 0h120v36.842H0z"/></clipPath></defs></svg>