<svg width="120" height="32" fill="none" xmlns="http://www.w3.org/2000/svg"><g clip-path="url(#a)"><path fill="#fff" d="M0 .94h120v30.12H0z"/><path d="M31.467 27.455V13.262c1.913 2.556 7.242 8.306 10.748 12.458 3.69 3.697 6.285 1.096 6.467-1.232V1.397h-6.467v14.192c-2.186-2.373-7.423-8.123-10.748-12.184-2.915-4.016-6.148-1.37-6.467.638v23.412h6.467zM61.298 1.26h-6.786v26.195h6.786V1.26z" fill="#0070FF"/><path fill-rule="evenodd" clip-rule="evenodd" d="M85.481 26.268c-1.958 1.14-4.235 1.78-6.694 1.78-7.47 0-13.527-6.07-13.527-13.554S71.317.94 78.787.94c7.469 0 13.526 6.07 13.526 13.554 0 2.601-.729 5.02-2.004 7.074l4.691 4.7-4.737 4.792-4.782-4.792zm.41-11.774c0 3.925-3.188 7.074-7.059 7.074-3.917 0-7.06-3.195-7.06-7.074 0-3.925 3.189-7.074 7.06-7.074 3.871 0 7.06 3.15 7.06 7.074z" fill="#0070FF"/></g><defs><clipPath id="a"><path fill="#fff" transform="translate(0 .94)" d="M0 0h120v30.12H0z"/></clipPath></defs></svg>