<svg width="120" height="27" fill="none" xmlns="http://www.w3.org/2000/svg"><g clip-path="url(#a)"><path fill-rule="evenodd" clip-rule="evenodd" d="M31.297 23.835c-6.966 4.802-15.71 4.073-19.526-1.629-3.815-5.7-1.264-14.231 5.702-19.033 6.966-4.8 15.71-4.072 19.526 1.63 3.836 5.722 1.264 14.231-5.702 19.032z" fill="#010202"/><path fill-rule="evenodd" clip-rule="evenodd" d="M31.083 22.816c-6.537 4.522-14.767 3.815-18.347-1.544-3.58-5.358-1.179-13.374 5.359-17.875C24.632-1.104 32.862-.42 36.442 4.94c3.58 5.358 1.179 13.353-5.359 17.876z" fill="#E83B49"/><path fill-rule="evenodd" clip-rule="evenodd" d="M32.433 9.762c-.578-.579-1.543-1.715-1.8-3.172-.086-.45-.214-.9-.536-1.222-3.258-3.129-7.652-3.322-10.76-2.743-1.093-.065-4.2-.986-5.315.343-.665.771-.364 1.993-.193 2.657.021.108.3.708.214.794-.021.021.215.107.193.128-3.644 4.501-4.994 11.381-1.779 15.304 4.137 5.015 11.617 4.672 15.861 2.55-10.33 3.323-8.98-11.252-2.186-8.209.729.322 2.272.9 3.172.707 1.243-.278 1.565-1.286 1.886-2.1l1.5-3.965c.108-.386.022-.793-.257-1.072z" fill="#010202"/><path fill-rule="evenodd" clip-rule="evenodd" d="M29.133 10.791c-.022.107-.172.086-.172 0-.107-1.329-.728-3.537-4.95-3.28-.108 0-.15-.064-.022-.106 1.907-.472 4.115-.193 4.8-.022.172.043-.02.536.022.729.086.557.579 1.414.322 2.679zm-5.68-5.83c-.386-.043-.665-.321-.643-.579.043-.278.386-.45.75-.407.386.043.665.322.643.579-.021.278-.364.45-.75.407zm1.843-.171c.064-.172.3-.258.558-.172.257.086.407.3.342.472-.064.171-.3.257-.557.171-.236-.086-.386-.3-.343-.471zm-6.28.021c-1.65 0-2.379 1.393-2.85 2.058-.065-.107-1.458-2.144-.88-2.722.58-.58 2.659.064 3.773.471.129.022.086.193-.043.193zm-3.558 5.016c-.343.578-.921.878-1.286.664-.364-.214-.407-.857-.064-1.436.343-.579.921-.879 1.286-.665.364.215.386.858.064 1.437zm-1.693 2.979c-.086.514-.429.879-.772.814-.321-.064-.514-.514-.428-1.028.085-.515.428-.88.771-.815.343.064.536.514.429 1.029zm-.986 3.108c-.193 0-.343-.236-.343-.515.021-.278.193-.493.386-.493s.343.236.343.515c0 .278-.193.493-.386.493zm18.39-5.337c.15 0 .943-.15.943-.15-.043-.022-1.565-.922-2.036-3.494-.086-.45-.236-.922-.579-1.222-4.03-3.665-9.838-2.357-10.138-1.993-1.822-.429-4.222-1.072-4.887-.129-.407.558.15 1.458.45 2.508.022.086.107.364.022.472-8.36 8.83-2.38 22.226 11.102 18.625a7.27 7.27 0 0 1-1.371.15c-2.873 0-4.866-2.229-4.866-5.08 0-1.007.279-1.928.772-2.721a5.34 5.34 0 0 0-2.036 3.922c-.043-.214-.086-.429-.108-.643-.321-3.022 1.715-5.723 4.609-6.237.836-.236 1.886-.215 3.172.193.814.257 2.315 1.05 3.386.878.386-.064.665-.407 1.03-1.286l.32-.707c-.535.75-3.686.257-3.086-.879.6-1.136 2.465 1.994 3.43-.193l.321-.857a.437.437 0 0 0-.128-.493c-.493-.386-.43-.643-.322-.664z" fill="#fff"/><path fill-rule="evenodd" clip-rule="evenodd" d="M74.979 9.87c0-.215.129-.322.343-.322h2.272c.214 0 .321.107.321.321v8.681c0 3.344-1.393 4.822-4.565 4.822-1.629 0-2.786-.3-3.815-1.05-.193-.107-.215-.278-.086-.45l1.029-1.543c.107-.172.257-.214.45-.107a4.606 4.606 0 0 0 2.336.643c1.158 0 1.822-.45 1.8-1.865-.535.15-1.135.279-1.757.279-2.336 0-4.094-1.5-4.094-4.094V9.89c0-.215.129-.322.343-.322h2.272c.215 0 .322.107.322.322v5.23c0 1.136.621 1.629 1.586 1.629.471 0 .964-.108 1.243-.28v-6.6zM49.43 11.09c0-1.006-.707-1.757-1.757-1.757h-1.95v3.494h1.95c1.072 0 1.757-.729 1.757-1.736zm2.68 0c0 2.401-1.865 4.202-4.309 4.202h-2.057v3.815h-2.637V6.911h4.716c2.422-.021 4.286 1.758 4.286 4.18z" fill="#000"/><path fill-rule="evenodd" clip-rule="evenodd" d="M52.002 11.09c0-2.36-1.814-4.093-4.178-4.072h-4.61V19h2.422v-3.816h2.165c2.387 0 4.201-1.755 4.201-4.093zm-4.18-4.286c2.48-.022 4.394 1.803 4.394 4.287 0 2.462-1.915 4.308-4.415 4.308h-1.95v3.815H43V6.804h4.822zm-2.207 2.422h2.057c.552 0 1.02.197 1.35.533.33.335.515.802.515 1.332 0 .528-.18.99-.508 1.32-.328.332-.796.523-1.357.523h-2.057V9.226zm.214.214v3.28h1.843c.511 0 .922-.174 1.205-.459.283-.286.446-.691.446-1.17 0-.478-.168-.89-.454-1.182-.287-.291-.698-.469-1.197-.469H45.83z" fill="#000"/><path d="M49.43 11.09c0-1.006-.707-1.757-1.757-1.757h-1.95v3.494h1.95c1.072 0 1.757-.729 1.757-1.736zm2.68 0c0 2.401-1.865 4.202-4.309 4.202h-2.057v3.815h-2.637V6.911h4.716c2.422-.021 4.286 1.758 4.286 4.18z" fill="#000"/><path fill-rule="evenodd" clip-rule="evenodd" d="M51.94 11.09c0-2.323-1.784-4.03-4.116-4.009H43.277v11.856h2.297v-3.815H47.8c2.355 0 4.139-1.729 4.139-4.031zm-4.118-4.349c2.512-.021 4.457 1.83 4.457 4.35 0 2.499-1.945 4.37-4.478 4.37h-1.887v3.816h-2.977V6.741h4.885zm-2.27 2.422h2.12c.568 0 1.052.204 1.395.552.342.348.533.832.533 1.376 0 .543-.185 1.022-.526 1.365-.34.344-.826.541-1.401.541h-2.12V9.163zm.34.34v3.154h1.78c.497 0 .891-.168 1.16-.44.27-.272.428-.662.428-1.126 0-.463-.162-.859-.436-1.138-.273-.278-.668-.45-1.151-.45h-1.78zM53.395 19.086h2.551V6.805h-2.55v12.281z" fill="#000"/><path fill-rule="evenodd" clip-rule="evenodd" d="M53.288 6.697h2.765v12.496h-2.765V6.697zm.214.215v12.067h2.337V6.912h-2.337z" fill="#000"/><path d="M53.395 19.086h2.551V6.805h-2.55v12.281z" fill="#000"/><path fill-rule="evenodd" clip-rule="evenodd" d="M53.226 6.634h2.89v12.621h-2.89V6.634zm.34.34v11.941h2.21V6.974h-2.21zM65.098 14.37c0-1.479-1.093-2.572-2.572-2.572s-2.572 1.093-2.572 2.572 1.093 2.572 2.572 2.572c1.5 0 2.572-1.093 2.572-2.572zm2.508-4.715v9.409h-1.994l-.214-.836c-.814.707-1.865 1.115-3.065 1.115-2.83 0-4.951-2.144-4.951-4.994 0-2.83 2.1-4.952 4.951-4.952 1.2 0 2.293.43 3.108 1.158l.278-.9h1.887z" fill="#000"/><path fill-rule="evenodd" clip-rule="evenodd" d="M62.333 9.504c-2.79 0-4.844 2.074-4.844 4.844 0 2.793 2.075 4.887 4.844 4.887 1.175 0 2.2-.398 2.995-1.088l.131-.114.237.924h1.803V9.762h-1.7l-.305.984-.124-.112c-.795-.71-1.862-1.13-3.037-1.13zm-5.058 4.844c0-2.888 2.148-5.058 5.058-5.058 1.166 0 2.234.396 3.054 1.077l.254-.82h2.072v9.624H65.53l-.192-.752c-.815.656-1.842 1.03-3.004 1.03-2.89 0-5.058-2.192-5.058-5.1zm2.572.022c0-1.538 1.141-2.68 2.68-2.68 1.537 0 2.678 1.142 2.678 2.68 0 1.537-1.119 2.679-2.679 2.679-1.538 0-2.68-1.141-2.68-2.68zm2.68-2.465c-1.42 0-2.466 1.045-2.466 2.465s1.045 2.465 2.465 2.465c1.44 0 2.465-1.045 2.465-2.465s-1.045-2.465-2.465-2.465z" fill="#000"/><path d="M65.098 14.37c0-1.479-1.093-2.572-2.572-2.572s-2.572 1.093-2.572 2.572 1.093 2.572 2.572 2.572c1.5 0 2.572-1.093 2.572-2.572zm2.508-4.715v9.409h-1.994l-.214-.836c-.814.707-1.865 1.115-3.065 1.115-2.83 0-4.951-2.144-4.951-4.994 0-2.83 2.1-4.952 4.951-4.952 1.2 0 2.293.43 3.108 1.158l.278-.9h1.887z" fill="#000"/><path fill-rule="evenodd" clip-rule="evenodd" d="M62.333 9.567c-2.756 0-4.781 2.046-4.781 4.782 0 2.758 2.047 4.824 4.781 4.824 1.16 0 2.17-.393 2.954-1.073l.207-.18.25.974h1.692v-9.07h-1.591l-.32 1.034-.197-.176c-.783-.7-1.836-1.115-2.995-1.115zm-5.121 4.782c0-2.923 2.176-5.121 5.121-5.121 1.146 0 2.2.378 3.021 1.031l.24-.774h2.182v9.749H65.48l-.181-.706c-.814.629-1.827.985-2.967.985-2.925 0-5.121-2.221-5.121-5.164zm2.572.021c0-1.573 1.17-2.742 2.742-2.742 1.573 0 2.742 1.17 2.742 2.742s-1.147 2.742-2.742 2.742c-1.573 0-2.742-1.17-2.742-2.742zm2.742-2.402c-1.385 0-2.402 1.017-2.402 2.402 0 1.385 1.017 2.402 2.402 2.402 1.405 0 2.402-1.016 2.402-2.402 0-1.385-1.017-2.402-2.402-2.402zM84.688 16.814v2.272h-1.821c-2.08 0-3.344-1.265-3.344-3.365V9.654l1.907-2.272h.6v2.293h2.594v2.036h-2.55v3.665c0 .9.514 1.437 1.457 1.437h1.157z" fill="#000"/><path fill-rule="evenodd" clip-rule="evenodd" d="M81.38 7.276h.758V9.57h2.593v2.25h-2.55v3.558c0 .43.122.759.343.98.221.221.555.35 1.007.35h1.264v2.485h-1.929c-1.061 0-1.927-.323-2.527-.926-.6-.603-.924-1.474-.924-2.546V9.616l1.965-2.34zm.1.215-1.85 2.204v6.026c0 1.029.31 1.84.86 2.395.553.554 1.359.863 2.376.863h1.715v-2.057h-1.05c-.492 0-.887-.14-1.158-.412-.272-.272-.407-.662-.407-1.132v-3.772h2.55V9.784h-2.593V7.491h-.443z" fill="#000"/><path d="M84.688 16.814v2.272h-1.821c-2.08 0-3.344-1.265-3.344-3.365V9.654l1.907-2.272h.6v2.293h2.594v2.036h-2.55v3.665c0 .9.514 1.437 1.457 1.437h1.157z" fill="#000"/><path fill-rule="evenodd" clip-rule="evenodd" d="M81.351 7.213h.85v2.293h2.593v2.376h-2.55v3.496c0 .418.118.729.325.935.206.206.522.33.962.33h1.327v2.613h-1.991c-1.075 0-1.958-.328-2.572-.945-.615-.618-.942-1.506-.942-2.59V9.592l1.998-2.38zm.159.34-1.817 2.164v6.003c0 1.016.305 1.81.843 2.35.537.54 1.326.846 2.33.846h1.653v-1.932h-.988c-.503 0-.916-.144-1.203-.43-.286-.287-.424-.694-.424-1.176v-3.835h2.55V9.846h-2.593V7.553h-.351zM86.703 19.086h2.55v-9.41h-2.55v9.41z" fill="#000"/><path fill-rule="evenodd" clip-rule="evenodd" d="M86.596 9.57h2.765v9.623h-2.765V9.569zm.214.214v9.195h2.336V9.784H86.81z" fill="#000"/><path d="M86.703 19.086h2.55v-9.41h-2.55v9.41z" fill="#000"/><path fill-rule="evenodd" clip-rule="evenodd" d="M86.533 9.507h2.89v9.75h-2.89v-9.75zm.34.34v9.07h2.21v-9.07h-2.21zM96.82 19.086l-3-4.501v4.5h-2.551V6.976h2.55v6.88l2.83-4.179h2.936l-3.194 4.48 3.537 4.93H96.82z" fill="#000"/><path fill-rule="evenodd" clip-rule="evenodd" d="M91.161 6.87h2.765v6.637l2.665-3.937h3.202l-3.27 4.586 3.613 5.037h-3.374l-2.836-4.254v4.255h-2.765V6.869zm.215.213V18.98h2.336v-4.748l3.165 4.748h2.842l-3.46-4.822 3.117-4.373h-2.671l-2.993 4.422V7.083h-2.337z" fill="#000"/><path d="m96.82 19.086-3-4.501v4.5h-2.551V6.976h2.55v6.88l2.83-4.179h2.936l-3.194 4.48 3.537 4.93H96.82z" fill="#000"/><path fill-rule="evenodd" clip-rule="evenodd" d="M91.099 6.806h2.89v6.496l2.57-3.796h3.356l-3.315 4.65 3.659 5.1h-3.53l-2.74-4.11v4.11H91.1V6.806zm.34.34v11.77h2.21V7.146h-2.21zm2.34 7.072 3.132 4.698h2.686l-3.415-4.76 3.073-4.31h-2.516l-2.96 4.372z" fill="#000"/><path fill-rule="evenodd" clip-rule="evenodd" d="M107.323 14.37c0-1.479-1.094-2.572-2.572-2.572-1.479 0-2.573 1.093-2.573 2.572s1.094 2.572 2.573 2.572c1.5 0 2.572-1.093 2.572-2.572zm2.507-4.715v9.409h-1.993l-.214-.836c-.815.707-1.865 1.115-3.065 1.115-2.83 0-4.952-2.144-4.952-4.994 0-2.83 2.101-4.952 4.952-4.952 1.2 0 2.293.43 3.107 1.158l.279-.9h1.886z" fill="#000"/><path fill-rule="evenodd" clip-rule="evenodd" d="M104.557 9.504c-2.791 0-4.844 2.074-4.844 4.844 0 2.793 2.075 4.887 4.844 4.887 1.175 0 2.2-.398 2.995-1.088l.131-.114.237.924h1.803V9.762h-1.7l-.305.984-.124-.112c-.795-.71-1.862-1.13-3.037-1.13zm-5.058 4.844c0-2.888 2.148-5.058 5.058-5.058 1.166 0 2.235.396 3.054 1.077l.254-.82h2.072v9.624h-2.183l-.193-.752c-.815.656-1.842 1.03-3.004 1.03-2.889 0-5.058-2.192-5.058-5.1zm2.572.022c0-1.538 1.141-2.68 2.679-2.68 1.538 0 2.679 1.142 2.679 2.68 0 1.537-1.119 2.679-2.679 2.679-1.538 0-2.679-1.141-2.679-2.68zm2.679-2.465c-1.419 0-2.465 1.045-2.465 2.465s1.046 2.465 2.465 2.465c1.441 0 2.465-1.045 2.465-2.465s-1.045-2.465-2.465-2.465z" fill="#000"/><path d="M107.323 14.37c0-1.479-1.094-2.572-2.572-2.572-1.479 0-2.573 1.093-2.573 2.572s1.094 2.572 2.573 2.572c1.5 0 2.572-1.093 2.572-2.572zm2.507-4.715v9.409h-1.993l-.214-.836c-.815.707-1.865 1.115-3.065 1.115-2.83 0-4.952-2.144-4.952-4.994 0-2.83 2.101-4.952 4.952-4.952 1.2 0 2.293.43 3.107 1.158l.279-.9h1.886z" fill="#000"/><path fill-rule="evenodd" clip-rule="evenodd" d="M104.557 9.567c-2.756 0-4.781 2.046-4.781 4.782 0 2.758 2.047 4.824 4.781 4.824 1.16 0 2.171-.393 2.954-1.073l.207-.18.25.974h1.692v-9.07h-1.591l-.32 1.034-.197-.176c-.783-.7-1.835-1.115-2.995-1.115zm-5.121 4.782c0-2.923 2.176-5.121 5.121-5.121 1.146 0 2.2.378 3.022 1.031l.239-.774H110v9.749h-2.295l-.181-.706c-.814.629-1.827.985-2.967.985-2.924 0-5.121-2.221-5.121-5.164zm2.572.021c0-1.573 1.169-2.742 2.742-2.742s2.742 1.17 2.742 2.742-1.147 2.742-2.742 2.742c-1.573 0-2.742-1.17-2.742-2.742zm2.742-2.402c-1.385 0-2.402 1.017-2.402 2.402 0 1.385 1.017 2.402 2.402 2.402 1.406 0 2.402-1.016 2.402-2.402 0-1.385-1.017-2.402-2.402-2.402z" fill="#000"/><path fill-rule="evenodd" clip-rule="evenodd" d="M88.804 8.22c-.9.621-2.037.514-2.53-.215-.492-.729-.17-1.822.75-2.422.9-.621 2.037-.514 2.53.214.471.708.15 1.8-.75 2.422z" fill="#E83B49"/><path d="M11.069 24.73c.16 0 .316.04.469.123a.87.87 0 0 1 .356.353.962.962 0 0 1-.351 1.306.965.965 0 0 1-.95 0 .963.963 0 0 1-.351-1.306.879.879 0 0 1 .358-.353.973.973 0 0 1 .469-.123zm0 .157a.811.811 0 0 0-.392.104.8.8 0 0 0-.3 1.088.807.807 0 0 0 1.087.294.75.75 0 0 0 .295-.294.801.801 0 0 0-.002-.794.725.725 0 0 0-.297-.294.81.81 0 0 0-.391-.104zm.306.951.155.046a.436.436 0 0 1-.161.252.477.477 0 0 1-.299.094.48.48 0 0 1-.361-.144.551.551 0 0 1-.14-.4c0-.11.022-.207.064-.29a.42.42 0 0 1 .18-.185.556.556 0 0 1 .267-.063c.113 0 .206.027.28.08a.396.396 0 0 1 .151.218l-.15.037a.3.3 0 0 0-.286-.194.311.311 0 0 0-.24.104c-.062.07-.093.168-.093.297 0 .129.03.227.088.293.06.066.137.099.231.099a.31.31 0 0 0 .313-.244z" fill="#010202"/></g><defs><clipPath id="a"><path fill="#fff" d="M0 0h120v27.009H0z"/></clipPath></defs></svg>