<svg width="120" height="14" fill="none" xmlns="http://www.w3.org/2000/svg"><g clip-path="url(#a)"><g clip-path="url(#b)"><mask id="c" style="mask-type:luminance" maskUnits="userSpaceOnUse" x="0" y="0" width="120" height="14"><path d="M120 .454H0v13.091h120V.455z" fill="#fff"/></mask><g mask="url(#c)"><path d="m24.91 8.513-1.346.712c.456 1.101 1.69 1.88 3.282 1.88 1.49 0 2.67-.746 3.104-1.647V7.889c-.29-.6-.857-1.1-1.703-1.39-.446-.155-.862-.21-1.248-.26-.307-.041-.595-.08-.865-.163-.39-.111-.612-.311-.735-.567v-.49c.19-.412.723-.7 1.424-.7.779 0 1.469.377 1.803 1.112l1.357-.712c-.456-1.08-1.636-1.824-3.17-1.824-1.458 0-2.593.722-3.016 1.646v1.48c.267.6.834 1.1 1.68 1.39.422.141.814.189 1.181.234.329.04.638.078.933.178.39.122.623.311.756.567v.578c-.211.413-.778.702-1.513.702-.834 0-1.557-.39-1.924-1.157zM34.734 4.541h2.615V3.072h-6.82v1.47h2.625v6.385h1.58V4.54zM41.744 3.072h-2.047l-2.97 7.565v.29h1.534l2.437-6.42 1.288 3.394h-1.922l-.544 1.435h3.01l.604 1.59h1.57v-.3l-2.96-7.554zM52.67 10.927V3.072h-1.536v5.363l-3.682-5.363h-1.78v7.855h1.546v-5.64l3.86 5.64h1.592z" fill="#0F0E0D" fill-opacity=".9"/><path fill-rule="evenodd" clip-rule="evenodd" d="M61.36 5.631v2.737c-.49 1.446-2.048 2.559-3.984 2.559h-3.015V3.072h3.015c1.936 0 3.494 1.113 3.983 2.56zm-1.614.412c-.234-.79-1.19-1.502-2.37-1.502h-1.424v4.917h1.424c1.18 0 2.136-.712 2.37-1.501V6.043z" fill="#0F0E0D" fill-opacity=".9"/><path d="M64.798 3.072h2.047l2.96 7.554v.3h-1.57l-.603-1.59h-3.01l.544-1.435h1.921L65.8 4.508l-2.436 6.419h-1.535v-.29l2.97-7.565z" fill="#0F0E0D" fill-opacity=".9"/><path fill-rule="evenodd" clip-rule="evenodd" d="M77.337 10.637v.29h-1.602L73.877 8.1h-1.535v2.826h-1.57V3.072H74.4c1.268 0 2.37.746 2.692 1.647v1.736c-.222.589-.823 1.156-1.58 1.446l1.825 2.736zm-4.995-3.893h1.902c.59 0 1.09-.29 1.269-.69v-.868c-.178-.4-.679-.7-1.27-.7h-1.901v2.258zM85.549 8.368V5.631c-.49-1.446-2.048-2.559-3.983-2.559h-3.015v7.855h3.015c1.935 0 3.492-1.113 3.983-2.559zm-3.983-3.827c1.179 0 2.136.712 2.369 1.502v1.914c-.233.79-1.19 1.501-2.369 1.501h-1.424V4.541h1.424zM95.761 7.89v1.535c-.31.868-1.368 1.502-2.603 1.502h-3.693V3.072h3.504c1.236 0 2.292.634 2.592 1.502v1.413c-.133.356-.444.668-.845.902.501.233.879.589 1.045 1zm-4.739-3.438V6.31h1.959c.467 0 .868-.234 1.023-.623v-.612c-.155-.379-.556-.623-1.023-.623h-1.959zm3.149 3.771c-.133-.4-.546-.634-1.024-.634h-2.125v1.959h2.125c.478 0 .89-.245 1.024-.624v-.7zM96.91 5.43v3.138c.477 1.447 2.046 2.537 3.982 2.537 1.936 0 3.494-1.09 3.971-2.537V5.431c-.477-1.447-2.036-2.536-3.971-2.536s-3.505 1.09-3.983 2.536zm6.352.424v2.291c-.245.79-1.202 1.502-2.381 1.502-1.168 0-2.125-.712-2.37-1.502V5.854c.245-.79 1.202-1.502 2.37-1.502 1.179 0 2.136.712 2.381 1.502z" fill="#0F0E0D" fill-opacity=".9"/><path d="M112.141 4.541h-2.615v6.386h-1.58V4.54h-2.625V3.072h6.82v1.469zM113.899 8.513l-1.346.712c.455 1.101 1.69 1.88 3.282 1.88 1.491 0 2.669-.746 3.104-1.647V7.889c-.29-.6-.857-1.1-1.702-1.39-.447-.155-.863-.21-1.25-.26-.306-.041-.594-.08-.865-.163-.389-.111-.612-.311-.733-.567v-.49c.189-.412.723-.7 1.424-.7.778 0 1.467.377 1.801 1.112l1.358-.712c-.457-1.08-1.636-1.824-3.171-1.824-1.457 0-2.592.722-3.015 1.646v1.48c.268.6.835 1.1 1.681 1.39.422.141.813.189 1.181.234.328.04.638.078.932.178.389.122.623.311.756.567v.578c-.21.413-.778.702-1.512.702-.834 0-1.558-.39-1.925-1.157z" fill="#0F0E0D" fill-opacity=".9"/><mask id="d" style="mask-type:luminance" maskUnits="userSpaceOnUse" x="0" y="0" width="20" height="14"><path d="M19.636.454H0v13.091h19.636V.455z" fill="#fff"/></mask><g mask="url(#d)" fill="#0F0E0D" fill-opacity=".9"><path d="M15.217.454 16.911 3.4H2.725L4.42.454h10.798zM12.252 10.6a26.588 26.588 0 0 1 5.234-6.203L18.982 7a23.656 23.656 0 0 0-5.036 6.546H5.69A23.655 23.655 0 0 0 .655 6.999L2.15 4.397A26.589 26.589 0 0 1 7.385 10.6h4.867z"/></g></g></g></g><defs><clipPath id="a"><path fill="#fff" transform="translate(0 .454)" d="M0 0h120v13.091H0z"/></clipPath><clipPath id="b"><path fill="#fff" transform="translate(0 .454)" d="M0 0h120v13.091H0z"/></clipPath></defs></svg>