<svg width="120" height="24" fill="none" xmlns="http://www.w3.org/2000/svg"><g clip-path="url(#a)"><g clip-path="url(#b)"><mask id="c" style="mask-type:luminance" maskUnits="userSpaceOnUse" x="26" y="0" width="68" height="24"><path d="M94 .667H26v22.667h68V.667z" fill="#fff"/></mask><g mask="url(#c)"><path d="M26 6.371V.667h4.62v5.704h3.77v3.907h-3.77v6.272c0 1.677.733 2.375 2.486 2.375h2.096v4.087h-2.955c-4.431 0-6.247-1.995-6.247-5.798V6.371zM42.379 22.844 36.835 6.372h4.716l3.569 11.625 4.454-11.625h4.814l4.428 11.625 3.569-11.625h4.75l-5.547 16.472h-5.123l-4.493-11.627-4.455 11.627H42.38zM69.506 20.851c-1.659-1.68-2.487-3.737-2.487-6.25 0-2.514.828-4.564 2.456-6.21 1.627-1.646 3.888-2.503 6.692-2.503 2.803 0 5.067.823 6.692 2.471 1.625 1.65 2.487 3.738 2.487 6.252 0 2.513-.831 4.591-2.487 6.25-1.656 1.66-3.857 2.472-6.692 2.472-2.772-.01-5.005-.836-6.66-2.482zm6.66-1.576c1.434 0 2.582-.445 3.407-1.302.826-.857 1.245-1.995 1.245-3.357s-.417-2.503-1.245-3.358c-.828-.854-1.976-1.302-3.406-1.302-1.43 0-2.581.443-3.407 1.302-.825.86-1.242 1.996-1.242 3.358s.415 2.503 1.242 3.357c.828.854 1.974 1.302 3.407 1.302z" fill="#272C6E"/><path d="M91.356 23.334a2.644 2.644 0 1 0 0-5.289 2.644 2.644 0 0 0 0 5.289z" fill="#FBCE49"/></g></g></g><defs><clipPath id="a"><path fill="#fff" transform="translate(0 .667)" d="M0 0h120v22.667H0z"/></clipPath><clipPath id="b"><path fill="#fff" transform="translate(26 .667)" d="M0 0h68v22.667H0z"/></clipPath></defs></svg>