<svg width="120" height="32" fill="none" xmlns="http://www.w3.org/2000/svg"><g clip-path="url(#a)"><path fill="#fff" d="M0 .5h120v31H0z"/><g clip-path="url(#b)" fill="#1D1765"><path d="m43.788 4.338 1.825.018 1.906 5.944 2.192-5.944h1.773l2.158 5.944 1.975-5.944h1.823l-2.911 8.373h-1.723l-2.225-5.978-2.259 5.978h-1.757l-2.777-8.391zM59.215.65a1.16 1.16 0 0 1 1.204 1.205 1.209 1.209 0 0 1-1.205 1.249 1.203 1.203 0 0 1-1.204-1.25A1.164 1.164 0 0 1 59.215.658M58.31 4.36h1.808v8.37H58.31V4.36zM60.966 11.004l1.606-.87c.486.786 1.205 1.197 2.208 1.197 1.038 0 1.573-.501 1.573-1.088 0-.687-1.004-.837-2.075-1.072-1.422-.284-2.928-.748-2.928-2.478 0-1.324 1.273-2.545 3.263-2.529 1.622 0 2.71.6 3.414 1.624l-1.506.828c-.402-.599-1.021-.955-1.908-.955-.987 0-1.455.45-1.455 1.006 0 .599.72.737 1.99 1.02 1.406.3 2.99.772 2.99 2.53 0 1.256-1.12 2.695-3.446 2.68-1.806 0-3.011-.654-3.73-1.893M68.825 8.583c0-2.462 1.891-4.387 4.351-4.387s4.3 1.796 4.3 4.27v.704h-6.927c.235 1.289 1.238 2.143 2.691 2.143a2.623 2.623 0 0 0 2.444-1.507l1.471.82c-.736 1.374-2.057 2.279-3.915 2.279-2.642 0-4.416-1.894-4.416-4.322m1.807-.937h5.018c-.267-1.206-1.187-1.877-2.474-1.877a2.6 2.6 0 0 0-2.542 1.877M77.918 4.356h1.422V2.379l1.806-.98v2.957h1.773v1.608h-1.773v3.332c0 1.507.235 1.742 1.773 1.742v1.691h-.267c-2.542 0-3.312-.803-3.312-3.417V5.964h-1.422V4.356zM83.417 8.583c0-2.462 1.89-4.387 4.35-4.387s4.3 1.796 4.3 4.27v.704h-6.921c.234 1.289 1.238 2.143 2.691 2.143a2.62 2.62 0 0 0 2.442-1.507l1.473.82c-.736 1.374-2.058 2.279-3.915 2.279-2.64-.008-4.42-1.901-4.42-4.322zm1.806-.937h5.02c-.267-1.206-1.187-1.877-2.476-1.877a2.6 2.6 0 0 0-2.542 1.877M92.858 8.543a4.31 4.31 0 0 1 2.69-4.041 4.298 4.298 0 0 1 1.677-.314c1.857 0 3.328 1.056 3.963 2.563l-1.606.685a2.493 2.493 0 0 0-2.357-1.573c-1.496 0-2.611 1.189-2.611 2.68a2.642 2.642 0 0 0 1.623 2.477c.323.134.67.203 1.02.202 1.138 0 1.974-.704 2.36-1.647l1.622.688c-.67 1.541-2.057 2.63-4.014 2.63a4.308 4.308 0 0 1-4.044-2.679 4.32 4.32 0 0 1-.323-1.676M102.258.5h1.773v4.91a3.219 3.219 0 0 1 2.576-1.222c2.109 0 3.397 1.373 3.397 3.651v4.89h-1.824V8.007c-.004-1.39-.673-2.268-2.035-2.268-1.187 0-2.108.898-2.108 2.379v4.611h-1.779V.5zM10 22.528h2.445v-7.335H10v7.335zm9.779 4.899h2.446v-7.344H19.78v7.344zm14.67-4.9h2.445v-7.334h-2.445v7.335zM10 12.739h2.445V.5H10v12.238zm4.89 0h2.444V.5H14.89v12.238zm4.889 0h2.446V.5H19.78v12.238zm4.891 14.69h2.445V15.19H24.67V27.43zm4.89-14.669h2.444V.52H29.56v12.24zM44.233 23.234c0-2.682 1.993-4.359 4.186-4.359a3.558 3.558 0 0 1 2.78 1.309v-1.14h1.794v8.181c0 2.464-1.541 4.275-4.22 4.275-2.094 0-3.518-1.006-4.153-2.363l1.655-.795c.419.922 1.223 1.509 2.496 1.509 1.523 0 2.444-1.123 2.444-2.565V26.23a3.572 3.572 0 0 1-2.812 1.363c-2.128 0-4.17-1.693-4.17-4.359zm7.066-.016c0-1.497-1.121-2.715-2.645-2.715-1.495 0-2.647 1.197-2.647 2.715 0 1.518 1.156 2.729 2.647 2.729 1.524 0 2.645-1.225 2.645-2.734M56.36 15.187h-1.79v12.239h1.79V15.187zM57.55 23.234a4.354 4.354 0 0 1 2.69-4.016 4.343 4.343 0 0 1 4.736.953 4.353 4.353 0 0 1-3.09 7.422 4.306 4.306 0 0 1-4.019-2.688 4.32 4.32 0 0 1-.318-1.67zm6.916 0c-.007-1.479-1.146-2.676-2.58-2.676-1.434 0-2.563 1.208-2.563 2.682 0 1.475 1.117 2.677 2.563 2.677 1.445 0 2.579-1.207 2.579-2.683M69.169 26.286v1.14h-1.751V15.187h1.775v4.98a3.55 3.55 0 0 1 2.78-1.292c2.193 0 4.17 1.677 4.17 4.36 0 2.682-2.034 4.358-4.162 4.358-1.12 0-2.193-.485-2.812-1.307zm5.192-3.068c0-1.525-1.156-2.715-2.647-2.715-1.49 0-2.629 1.223-2.629 2.715 0 1.492 1.122 2.729 2.629 2.729s2.647-1.208 2.647-2.734M76.907 23.234c0-2.682 1.993-4.359 4.187-4.359 1.105 0 2.16.487 2.78 1.258v-1.09h1.794v8.383h-1.795v-1.157a3.56 3.56 0 0 1-2.796 1.324c-2.128 0-4.17-1.693-4.17-4.359zm7.067-.016c0-1.497-1.122-2.715-2.646-2.715-1.495 0-2.646 1.197-2.646 2.715 0 1.518 1.156 2.729 2.642 2.729 1.524 0 2.645-1.225 2.645-2.734M89.028 15.187h-1.792v12.239h1.791V15.187z"/><path d="M10 22.528h2.445v-7.335H10v7.335zm9.779 4.899h2.446v-7.344H19.78v7.344zm14.67-4.9h2.445v-7.334h-2.445v7.335zM10 12.739h2.445V.5H10v12.238zm4.89 0h2.444V.5H14.89v12.238zm4.889 0h2.446V.5H19.78v12.238zm4.891 14.69h2.445V15.19H24.67V27.43zm4.89-14.669h2.444V.52H29.56v12.24z"/></g></g><defs><clipPath id="a"><path fill="#fff" transform="translate(0 .5)" d="M0 0h120v31H0z"/></clipPath><clipPath id="b"><path fill="#fff" transform="translate(10 .5)" d="M0 0h100v31H0z"/></clipPath></defs></svg>