<svg width="24" height="24" viewBox="0 0 24 24" fill="none" xmlns="http://www.w3.org/2000/svg">
<g transform="translate(0 0) scale(1)">
<g clip-path="url(#clip0_733_39)">
<path d="M12.0585 2.28689C12.5957 2.2584 13.0672 2.52179 13.4092 3.01318C16.1658 6.98139 18.9215 10.9496 21.6686 14.9239C22.236 15.7451 22.0546 16.7279 21.2791 17.2685C20.5157 17.7996 19.4941 17.588 18.9103 16.7504C17.0104 14.0231 15.1191 11.289 13.2244 8.55745C13.1898 8.50563 13.1553 8.45468 13.119 8.40373C12.3677 7.34151 11.625 7.33978 10.8875 8.402C8.97377 11.1586 7.05918 13.9143 5.15151 16.6752C4.83629 17.1312 4.452 17.4697 3.88461 17.5302C3.18856 17.6053 2.62981 17.3601 2.26279 16.7529C1.88712 16.1312 1.91908 15.5068 2.32756 14.9135C3.24469 13.5836 4.17046 12.2597 5.09365 10.9341C6.91324 8.32082 8.73714 5.70931 10.5516 3.09263C10.903 2.58483 11.3461 2.27653 12.0585 2.28689Z" fill="#FF008C"/>
<path d="M11.9912 17.6744C13.126 17.6718 14.0163 18.5379 14.0267 19.6554C14.0379 20.7807 13.1061 21.7263 11.9972 21.7151C11.4632 21.7087 10.9532 21.4921 10.5778 21.1122C10.2024 20.7323 9.99194 20.2197 9.99197 19.6857C9.9871 19.4212 10.0354 19.1584 10.134 18.9129C10.2325 18.6674 10.3794 18.4443 10.5659 18.2566C10.7523 18.0689 10.9745 17.9206 11.2194 17.8205C11.4642 17.7203 11.7267 17.6712 11.9912 17.6744Z" fill="#FF008C"/>
</g>
<defs>
<clipPath id="clip0_733_39">
<rect width="24" height="24" fill="white"/>
</clipPath>
</defs>
</g>
</svg>
