<svg preserveAspectRatio="none" overflow="visible" style="display: block;" width="480" height="513" viewBox="0 0 480 513" fill="none" xmlns="http://www.w3.org/2000/svg">
<g id="kitaru-hexagon" clip-path="url(#clip0_0_82)">
<path id="Vector" d="M229.419 3.59668C236.111 0.408018 243.889 0.408 250.581 3.59668L467.531 106.967C474.414 110.246 478.795 117.18 478.795 124.79V388.21C478.795 395.82 474.414 402.754 467.531 406.033L250.581 509.403C243.889 512.592 236.111 512.592 229.419 509.403L12.4688 406.033C5.58625 402.754 1.20508 395.82 1.20508 388.21V124.79C1.20508 117.18 5.58625 110.246 12.4688 106.967L229.419 3.59668Z" fill="#FBE8DA" stroke="#F4934F" stroke-width="2.41" stroke-linejoin="round"/>
<path id="Vector_2" d="M238.956 204.203C239.592 204.203 240.286 204.029 240.864 203.798L308.981 171.185C312.566 169.451 314.936 165.75 314.936 161.76V152.393C314.936 148.345 312.681 144.76 309.038 143.025L245.259 112.489C241.905 110.927 238.089 110.927 234.793 112.489L170.956 143.025C167.371 144.702 165 148.403 165 152.45V161.818C165 165.866 167.255 169.451 170.898 171.185L197.213 183.745C197.213 183.745 177.814 193.002 171.349 196.09C167.377 197.987 165.006 201.369 165.006 205.706V214.495C165.006 218.543 167.261 222.128 170.904 223.863L234.683 254.336C236.36 255.145 238.153 255.55 239.945 255.55C241.738 255.55 243.53 255.145 245.207 254.336L309.044 223.863C312.629 222.128 315 218.427 315 214.437V205.07C315 201.022 312.745 197.437 309.102 195.702L294.993 188.995L284.758 193.968L305.228 203.74C305.748 204.029 306.095 204.549 306.095 205.128V214.495C306.095 215.073 305.748 215.652 305.228 215.883L241.448 246.356C240.523 246.761 239.54 246.761 238.615 246.356L174.836 215.883C174.315 215.594 173.968 215.073 173.968 214.495V205.706C173.968 204.839 174.662 204.203 175.472 204.203H238.962H238.956ZM173.905 161.754V152.387C173.905 151.809 174.252 151.288 174.772 150.999L238.609 120.532C239.535 120.127 240.518 120.127 241.443 120.532L305.222 151.005C305.742 151.294 306.089 151.814 306.089 152.393V161.76C306.089 162.338 305.742 162.917 305.222 163.148L241.443 193.621C240.518 194.026 239.535 194.026 238.609 193.621L174.772 163.142C174.252 162.853 173.905 162.333 173.905 161.754Z" fill="#1C1E19"/>
<g id="Group">
<path id="Vector_3" d="M247.676 326.506C251.235 326.506 254.167 324.096 254.167 320.117C254.167 317.814 253.12 316.137 250.92 314.987C252.235 313.964 254.364 313.2 256.742 312.826V306.264C249.286 307.154 240.449 310.378 240.449 318.861C240.449 323.364 242.858 326.506 247.672 326.506H247.676Z" fill="#1C1E19"/>
<path id="Vector_4" d="M229.663 314.456C229.804 313.87 233.202 308.488 233.202 308.488H217.916V289.857H206.646V308.488C206.646 308.488 203.241 308.433 197.395 308.488V314.456H206.611V350.802C206.611 356.037 207.028 358.131 208.075 359.808C209.539 362.218 212.893 363.473 218.023 363.473C221.64 363.473 228.383 362.954 231.572 360.867C230.383 358.261 229.773 356.23 229.061 353.75C229.061 353.75 226.592 355.407 223.471 355.537C219.877 355.687 217.92 355.203 217.92 351.329V314.46H229.667L229.663 314.456Z" fill="#1C1E19"/>
<path id="Vector_5" d="M307.227 316.298V308.13H287.647L290.076 314.196H294.56C295.607 314.196 297.071 314.72 297.071 316.92V351.683C297.071 355.033 295.083 355.663 294.036 355.663H285.569C283.475 355.663 282.439 355.407 282.439 352.479V320.125C282.439 310.37 273.303 306.843 264.831 306.134V313.291C268.559 314.472 271.445 317.243 271.445 322.431V327.352C265.162 328.19 259.718 329.446 253.852 331.434C245.058 334.469 237.319 339.394 237.319 349.444C237.319 359.493 244.637 363.894 253.644 363.894C260.159 363.894 268.162 361.194 271.425 355.006V359.694C271.425 360.997 272.48 362.052 273.783 362.052H321.155V355.663H311.522C309.534 355.663 308.381 354.616 308.381 351.683V334.249C308.381 325.766 318.112 314.389 326.957 314.389V308.221C322.446 308.221 311.207 309.283 307.227 316.298ZM271.425 341.74C271.027 349.802 264.481 355.407 256.368 355.407C251.971 355.407 249.144 351.849 249.144 347.448C249.144 337.103 268.335 333.745 271.429 333.733V341.74H271.425Z" fill="#1C1E19"/>
<path id="Vector_6" d="M348.821 353.081C347.108 351.569 346.274 349.101 346.274 345.68V319.223C346.274 316.558 348.423 314.448 351.049 314.448H355.304V308.28H335.043V319.062C335.043 319.117 335.051 319.168 335.051 319.223V345.96C335.051 352.006 336.68 356.384 339.944 359.088C343.168 361.832 347.305 363.225 352.237 363.225C356.131 363.225 359.359 362.548 362.106 361.237V353.994C360.158 354.99 358.087 355.466 355.938 355.466C353.788 355.466 350.568 354.671 348.817 353.081H348.821Z" fill="#1C1E19"/>
<path id="Vector_7" d="M385.028 314.448H390V308.28H360.04V314.448H365.409C368.035 314.448 370.184 316.597 370.184 319.223C370.184 327.738 370.184 354.156 370.184 361.875V362.391H389.044V356.222H385.024C382.399 356.222 380.249 354.073 380.249 351.447V319.219C380.249 316.554 382.399 314.444 385.024 314.444L385.028 314.448Z" fill="#1C1E19"/>
<path id="Vector_8" d="M113.461 351.845V334.15L123.401 325.356H123.405L132.321 317.534L132.302 317.507C149.787 301.8 154.185 296.565 157.326 296.565H164.238V289.55H131.884V296.565H139.423C140.678 296.565 141.308 297.403 141.308 298.344C141.308 300.544 131.262 308.083 113.461 325.045V300.336C113.461 297.509 114.926 296.565 117.544 296.565H125.287V289.55H90V296.565H97.6525C99.7468 296.565 101.317 298.344 101.317 300.438V352.687C101.317 354.049 99.3295 355.096 98.1761 355.096H90.2126V362.111H125.291V355.096H116.713C114.934 355.096 113.465 353.632 113.465 351.849L113.461 351.845Z" fill="#1C1E19"/>
<path id="Vector_9" d="M187.507 350.648V307.996H168.647V314.165H172.666C175.292 314.165 177.441 316.314 177.441 318.94V350.652C177.441 353.317 175.292 355.427 172.666 355.427H167.694V355.407C165.077 355.407 160.365 355.301 158.062 352.16L137.525 324.526L128.664 332.304L141.308 349.018C142.147 350.066 143.402 351.845 143.402 353.313C143.402 354.254 142.355 355.092 141.517 355.092H134.081V362.107H197.651V355.423H192.282C189.656 355.423 187.507 353.274 187.507 350.648Z" fill="#1C1E19"/>
</g>
</g>
<defs>
<clipPath id="clip0_0_82">
<rect width="480" height="513" fill="white"/>
</clipPath>
</defs>
</svg>
